<svg xmlns="http://www.w3.org/2000/svg" version="1.1" xmlns:xlink="http://www.w3.org/1999/xlink" xmlns:svgjs="http://svgjs.dev/svgjs" width="2000" height="2000" viewBox="0 0 2000 2000"><g transform="matrix(1,0,0,1,-0.9999999999998863,-0.9999999999998863)"><svg viewBox="0 0 280 280" data-background-color="#000000" preserveAspectRatio="xMidYMid meet" height="2000" width="2000" xmlns="http://www.w3.org/2000/svg" xmlns:xlink="http://www.w3.org/1999/xlink"><g id="tight-bounds" transform="matrix(1,0,0,1,0.13999999999998636,0.13999999999998636)"><svg viewBox="0 0 279.72 279.72" height="279.72" width="279.72"><g><svg viewBox="0 0 279.72 279.72" height="279.72" width="279.72"><g><svg viewBox="0 0 279.72 279.72" height="279.72" width="279.72"><g id="textblocktransform"><svg viewBox="0 0 279.72 279.72" height="279.72" width="279.72" id="textblock"><g><svg viewBox="0 0 279.72 279.72" height="279.72" width="279.72"><g transform="matrix(1,0,0,1,73.92936372216631,95.17203142083359)"><svg viewBox="0 0 131.8612725556674 89.37593715833285" height="89.37593715833285" width="131.8612725556674"><g id="icon-0"><svg xmlns="http://www.w3.org/2000/svg" xmlns:xlink="http://www.w3.org/1999/xlink" version="1.1" x="0" y="0" viewBox="6.768000000000001 20.451 72.437 49.09799999999999" style="enable-background:new 0 0 90 90;" xml:space="preserve" height="89.37593715833285" width="131.8612725556674" class="icon-xg-0" data-fill-palette-color="accent" id="xg-0"></svg></g></svg></g><g id="text-0"></g><g id="text-1"></g></svg></g></svg></g></svg></g><g></g></svg></g><defs></defs><mask id="a5d62b7b-b495-4112-94bb-5130b5eb40ff"><g id="SvgjsG6941"><svg viewBox="0 0 279.72 279.72" height="279.72" width="279.72"><g><svg viewBox="0 0 279.72 279.72" height="279.72" width="279.72"><g><svg viewBox="0 0 279.72 279.72" height="279.72" width="279.72"><g id="SvgjsG6940"><svg viewBox="0 0 279.72 279.72" height="279.72" width="279.72" id="SvgjsSvg6939"><g><svg viewBox="0 0 279.72 279.72" height="279.72" width="279.72"><g transform="matrix(1,0,0,1,73.92936372216631,95.17203142083359)"><svg viewBox="0 0 131.8612725556674 89.37593715833285" height="89.37593715833285" width="131.8612725556674"><g id="SvgjsG6938"><svg xmlns="http://www.w3.org/2000/svg" xmlns:xlink="http://www.w3.org/1999/xlink" version="1.1" x="0" y="0" viewBox="6.768000000000001 20.451 72.437 49.09799999999999" style="enable-background:new 0 0 90 90;" xml:space="preserve" height="89.37593715833285" width="131.8612725556674" class="icon-xg-0" data-fill-palette-color="accent" id="SvgjsSvg6937"><g fill="black"><path d="M76.559 20.451H31.47c-1.462 0-2.646 1.185-2.646 2.646v32.135h50.381V23.097C79.205 21.636 78.02 20.451 76.559 20.451zM76.329 53.026H31.702V23.518h44.627V53.026z" fill="black"></path><path d="M75.699 30.108c0 0-9.329 2.357-23.568 9.145C39.703 45.181 32.3 50.995 32.3 50.995v1.557h43.399V30.108z" fill="black"></path><path d="M78.88 55.696H28.392c-0.03 0-0.056 0.007-0.081 0.017L7.363 64.806c-0.419 0.182-0.595 0.357-0.595 0.826 0 0.034 0 3.491 0 3.491 0 0.276 0.298 0.426 0.695 0.426 1.046 0 43.411 0 45.158 0 1.751 0 4.364-0.484 5.838-1.138 1.331-0.591 17.089-7.455 20.132-8.782 0.328-0.142 0.507-0.516 0.503-0.919 0-0.84-0.005-2.812-0.012-2.848C79.063 55.765 78.979 55.696 78.88 55.696zM58.379 64.577c-1.394 0.619-3.976 1.121-5.758 1.121H7.607c-0.275 0-0.417-0.079-0.434-0.15C7.158 65.47 7.259 65.3 7.53 65.185l20.904-9.075h49.449C74.077 57.76 59.647 64.014 58.379 64.577z" fill="black"></path><polygon points="28.092,58.223 31.095,58.223 33.504,57.203 33.504,56.748 31.072,57.811 28.092,57.811  " fill="black"></polygon><polygon points="28.839,59.235 28.839,58.779 26.407,59.839 23.427,59.839 23.427,60.254 26.43,60.254  " fill="black"></polygon><polygon points="18.826,61.873 18.826,62.286 21.827,62.286 24.238,61.266 24.238,60.81 21.804,61.873  " fill="black"></polygon><polygon points="39.684,57.203 39.684,56.748 37.253,57.811 34.274,57.811 34.274,58.223 37.278,58.223  " fill="black"></polygon><polygon points="35.019,59.235 35.019,58.779 32.585,59.839 29.609,59.839 29.609,60.254 32.611,60.254  " fill="black"></polygon><polygon points="25.006,61.873 25.006,62.286 28.01,62.286 30.419,61.266 30.419,60.81 27.985,61.873  " fill="black"></polygon><polygon points="45.865,57.203 45.865,56.748 43.433,57.811 40.454,57.811 40.454,58.223 43.458,58.223  " fill="black"></polygon><polygon points="41.2,59.235 41.2,58.779 38.768,59.839 35.789,59.839 35.789,60.254 38.791,60.254  " fill="black"></polygon><polygon points="31.189,61.873 31.189,62.286 34.191,62.286 36.6,61.266 36.6,60.81 34.168,61.873  " fill="black"></polygon><polygon points="52.047,57.203 52.047,56.748 49.613,57.811 46.635,57.811 46.635,58.223 49.64,58.223  " fill="black"></polygon><polygon points="47.382,59.235 47.382,58.779 44.948,59.839 41.97,59.839 41.97,60.254 44.974,60.254  " fill="black"></polygon><polygon points="37.371,61.873 37.371,62.286 40.374,62.286 42.78,61.266 42.78,60.81 40.351,61.873  " fill="black"></polygon><polygon points="58.228,57.203 58.228,56.748 55.793,57.811 52.816,57.811 52.816,58.223 55.819,58.223  " fill="black"></polygon><polygon points="53.563,59.235 53.563,58.779 51.131,59.839 48.152,59.839 48.152,60.254 51.155,60.254  " fill="black"></polygon><polygon points="43.553,61.873 43.553,62.286 46.555,62.286 48.96,61.266 48.96,60.81 46.529,61.873  " fill="black"></polygon><polygon points="64.408,57.203 64.408,56.748 61.977,57.811 58.999,57.811 58.999,58.223 62,58.223  " fill="black"></polygon><polygon points="59.743,59.235 59.743,58.779 57.311,59.839 54.334,59.839 54.334,60.254 57.335,60.254  " fill="black"></polygon><polygon points="49.731,61.873 49.731,62.286 52.734,62.286 55.143,61.266 55.143,60.81 52.711,61.873  " fill="black"></polygon><polygon points="70.589,57.203 70.589,56.748 68.157,57.811 65.177,57.811 65.177,58.223 68.183,58.223  " fill="black"></polygon><polygon points="60.515,59.839 60.515,60.254 63.518,60.254 65.923,59.235 65.923,58.779 63.492,59.839  " fill="black"></polygon><polygon points="55.914,61.873 55.914,62.286 58.915,62.286 61.323,61.266 61.323,60.81 58.889,61.873  " fill="black"></polygon></g></svg></g></svg></g><g id="SvgjsG6936"><path d="M31.169 99.413v0l-15.416-5.259 3.358 3.611-1.169 3.426-4.752 0.694 15.321 5.227c0.406 0.139 0.671 0.243 0.796 0.314v0c0.287 0.197 0.295 0.692 0.025 1.485v0c-0.77 2.259-1.574 3.245-2.412 2.96v0l-24.077-8.214c-0.856-0.292-1.019-1.219-0.486-2.779 0.532-1.561 1.271-2.357 2.217-2.388v0l9.924-0.44-7.566-6.597c-0.432-0.353-0.683-0.686-0.753-1-0.07-0.314 0.007-0.798 0.229-1.452v0c0.556-1.631 1.28-2.308 2.17-2.032v0l10.302 2.908 13.684 4.668c0.679 0.232 1.076 0.438 1.192 0.619 0.117 0.175 0.058 0.608-0.178 1.3-0.236 0.692-0.45 1.245-0.641 1.661-0.189 0.41-0.443 0.759-0.761 1.047-0.309 0.284-0.645 0.364-1.007 0.241z" fill="white"></path><path d="M51.211 66.261v0l-16.413-14.53-2.972 3.358c-0.397 0.418-0.759 0.595-1.086 0.529v0c-0.393-0.062-0.913-0.379-1.561-0.952v0c-1.019-0.902-1.26-1.657-0.722-2.264v0l8.658-9.78c0.92-1.039 1.658-1.312 2.215-0.819v0c1.591 1.409 2.007 2.542 1.247 3.401v0l-2.689 2.991 5.664 4.585 10.959 9.647c0.341 0.302 0.556 0.51 0.643 0.623v0c0.189 0.292 0.005 0.752-0.55 1.38v0c-1.6 1.807-2.731 2.417-3.393 1.831z" fill="white"></path><path d="M114.111 26.059c-0.6-0.531-0.926-0.955-0.98-1.272-0.055-0.324 0.149-0.807 0.612-1.45 0.461-0.649 0.777-1.012 0.948-1.088 0.17-0.083 0.337-0.139 0.502-0.167 0.159-0.027 0.448 0.036 0.868 0.19v0c1.976 1.073 3.622 1.499 4.937 1.277 1.322-0.223 2.133-0.677 2.432-1.36 0.299-0.683 0.365-1.52 0.198-2.511-0.168-0.991-0.66-1.731-1.476-2.218-0.811-0.495-2.097-1.043-3.857-1.643-1.76-0.6-3.36-1.496-4.799-2.687-1.438-1.185-2.282-2.521-2.533-4.008v0c-0.447-2.644-0.085-4.687 1.085-6.128 1.176-1.45 3.096-2.4 5.759-2.85v0c1.633-0.276 3.291-0.155 4.977 0.362v0c0.882 0.191 1.33 0.465 1.342 0.824v0c-0.003 0.143 0.01 0.359 0.038 0.646v0c-0.234 1.352-0.454 2.143-0.659 2.375v0c-0.065 0.059-0.22 0.108-0.464 0.15-0.251 0.042-0.938-0.042-2.062-0.253-1.13-0.21-2.065-0.253-2.805-0.128-0.74 0.125-1.315 0.487-1.724 1.087-0.407 0.606-0.531 1.381-0.371 2.327 0.159 0.939 0.726 1.72 1.701 2.343 0.982 0.623 2.426 1.198 4.33 1.726v0c2.027 0.65 3.594 1.415 4.702 2.295 1.107 0.88 1.808 2.193 2.103 3.938v0c0.981 5.803-0.981 9.119-5.885 9.948v0c-3.655 0.618-6.628 0.043-8.919-1.725z" fill="white"></path><path d="M161.298 24.634l2.353-11.783-2.82-0.563c-0.276-0.055-0.421-0.152-0.434-0.292-0.008-0.131 0.005-0.279 0.037-0.444v0c0.202-1.012 0.485-1.52 0.848-1.522v0l2.932 0.001 2.766-3.58c0.346-0.293 0.919-0.36 1.721-0.2v0c0.21 0.042 0.324 0.502 0.34 1.38 0.021 0.886 0.007 2.004-0.045 3.355v0l3.383 0.675c0.375 0.075 0.468 0.582 0.28 1.522-0.188 0.94-0.469 1.373-0.843 1.298v0l-3.422-0.683-2.233 11.182-0.223 4.097-0.006 0.03c-0.008 0.142-0.027 0.237-0.057 0.286v0c-0.155 0.16-0.762 0.135-1.82-0.077v0c-1.052-0.21-1.641-0.546-1.768-1.009v0z" fill="white"></path><path d="M199.719 31.463v0c1.329-2.243 2.532-3.825 3.608-4.746 1.072-0.915 2.156-1.337 3.25-1.265 1.091 0.078 2.462 0.606 4.112 1.583 1.644 0.974 2.762 1.921 3.354 2.841 0.595 0.929 0.745 2.082 0.451 3.459-0.291 1.386-1.102 3.2-2.431 5.443v0c-1.828 3.085-3.537 4.963-5.127 5.634-1.595 0.667-3.564 0.307-5.905-1.08-2.347-1.391-3.611-2.946-3.792-4.666-0.175-1.717 0.652-4.118 2.48-7.203zM203.915 33.949v0c-2.047 3.454-2.742 5.376-2.085 5.766v0c0.905 0.537 1.66 0.789 2.263 0.757v0c0.326-0.025 0.658-0.229 0.995-0.614v0c0.674-0.769 1.517-2.007 2.529-3.715v0c2.023-3.414 2.706-5.316 2.049-5.705v0c-1.234-0.731-2.163-0.9-2.787-0.506-0.623 0.394-1.612 1.733-2.964 4.017z" fill="white"></path><path d="M245.032 57.67l-0.615 1.415c2.277 0.686 3.613 1.274 4.009 1.764 0.4 0.495 0.666 1.017 0.798 1.565 0.137 0.553 0.189 0.997 0.159 1.333v0l-0.048 0.452c-1.422 0.683-2.34 1.071-2.756 1.165-0.419 0.089-0.73 0.008-0.932-0.242-0.202-0.25-0.359-0.653-0.472-1.209-0.107-0.56-0.289-0.998-0.546-1.316-0.253-0.313-1.052-0.71-2.397-1.192v0l-10.272 8.294c-0.11 0.088-0.2 0.131-0.271 0.128v0c-0.209 0.04-0.56-0.246-1.053-0.856-0.497-0.615-0.913-1.227-1.249-1.834-0.331-0.603-0.442-0.948-0.333-1.037v0l13.847-11.181c0.297-0.24 0.783 0.057 1.457 0.892 0.678 0.84 0.921 1.445 0.729 1.815v0z" fill="white"></path><path d="M251.005 106.108v0c-0.831-2.422-0.751-4.328 0.239-5.717 0.991-1.389 3.182-2.665 6.575-3.828v0c2.441-0.837 4.376-1.26 5.804-1.269 1.422-0.006 2.517 0.345 3.285 1.053 0.761 0.71 1.433 1.914 2.015 3.613 0.581 1.693 0.783 3.058 0.609 4.097-0.178 1.032-0.84 1.971-1.989 2.819-1.152 0.856-2.914 1.691-5.285 2.504v0c-0.139 0.048-0.276 0.095-0.409 0.14-0.139 0.048-0.358-0.175-0.654-0.668-0.291-0.496-0.564-1.118-0.821-1.866v0l-1.791-5.221c-2.635 0.954-4.076 1.66-4.322 2.12v0c-0.106 0.27-0.081 0.63 0.073 1.081v0c1.016 2.961 1.857 4.937 2.522 5.927v0c0.041 0.036 0.064 0.063 0.071 0.082v0c0.099 0.143 0.051 0.305-0.142 0.485-0.193 0.18-0.709 0.413-1.546 0.7-0.837 0.287-1.362 0.265-1.574-0.066v0c-0.679-0.802-1.566-2.797-2.66-5.986zM263.937 99.928v0l-2.644 0.907 1.175 3.424c2.595-0.989 3.818-1.7 3.67-2.131v0c-0.263-0.767-0.595-1.362-0.995-1.785-0.392-0.418-0.793-0.557-1.206-0.415z" fill="white"></path><path d="M3.482 143.5c0-5.812 4.712-10.524 10.525-10.525 5.812 0 10.524 4.712 10.524 10.525 0 5.812-4.712 10.524-10.524 10.524-5.812 0-10.524-4.712-10.525-10.524z" fill="white"></path><path d="M256.62 143.5c0-5.812 4.712-10.524 10.525-10.525 5.812 0 10.524 4.712 10.524 10.525 0 5.812-4.712 10.524-10.524 10.524-5.812 0-10.524-4.712-10.525-10.524z" fill="white"></path></g><g id="SvgjsG6935"><path d="M12.312 180.135c0.422-0.663 0.782-1.045 1.081-1.145 0.299-0.1 0.796 0.025 1.491 0.373 0.704 0.352 1.105 0.603 1.205 0.754 0.1 0.151 0.176 0.305 0.229 0.464 0.051 0.153 0.034 0.441-0.051 0.865v0c-0.742 2.077-0.907 3.736-0.494 4.976 0.415 1.247 0.975 1.961 1.678 2.143 0.706 0.189 1.526 0.128 2.461-0.183 0.935-0.311 1.581-0.897 1.937-1.758 0.35-0.858 0.685-2.185 1.006-3.981 0.312-1.8 0.935-3.484 1.868-5.052 0.933-1.568 2.102-2.587 3.508-3.055v0c2.487-0.828 4.519-0.784 6.095 0.132 1.579 0.923 2.787 2.64 3.623 5.153v0c0.51 1.533 0.644 3.152 0.4 4.858v0c-0.051 0.886-0.253 1.363-0.605 1.431v0c-0.142 0.019-0.35 0.064-0.623 0.133v0c-1.338-0.028-2.132-0.124-2.385-0.287v0c-0.066-0.049-0.138-0.191-0.216-0.426-0.076-0.229-0.1-0.906-0.072-2.032 0.036-1.121-0.062-2.032-0.295-2.731-0.233-0.7-0.673-1.203-1.32-1.511-0.644-0.301-1.409-0.305-2.292-0.01-0.89 0.297-1.565 0.966-2.023 2.009-0.452 1.041-0.791 2.524-1.019 4.451v0c-0.325 2.058-0.831 3.689-1.518 4.894-0.687 1.204-1.851 2.079-3.492 2.625v0c-5.47 1.822-8.974 0.42-10.514-4.203v0c-1.148-3.447-1.036-6.409 0.337-8.887z" fill="black"></path><path d="M29.766 215.149v0l0.704 1.053 14.93-9.98-0.587-0.878c-0.244-0.401-0.294-0.747-0.149-1.037v0c0.18-0.322 0.629-0.723 1.348-1.204v0c1.092-0.73 1.855-0.772 2.287-0.125v0l3.453 5.166c0.574 0.858 0.56 1.489-0.042 1.891v0c-1.733 1.159-2.827 1.398-3.282 0.718v0l-0.491-0.736-5.648 4.199-9.064 6.107 0.587 0.878c0.432 0.695 0.347 1.243-0.255 1.646v0c-1.759 1.12-2.944 1.222-3.555 0.308v0l-3.694-5.525c-0.218-0.362-0.255-0.689-0.11-0.979v0c0.18-0.322 0.641-0.731 1.382-1.226v0c1.092-0.73 1.821-0.822 2.186-0.276z" fill="black"></path><path d="M47.355 241.799v0l16.297-18.755c0.567-0.653 1.488-0.425 2.763 0.683v0c0.263 0.229 0.464 0.416 0.603 0.563 0.134 0.152 0.249 0.403 0.345 0.753 0.105 0.349 0.123 0.742 0.054 1.179v0l-4.938 15.264 9.496-11.25c0.554-0.638 1.469-0.402 2.744 0.706v0c0.531 0.462 0.84 0.837 0.927 1.125 0.087 0.298-0.031 0.648-0.354 1.051v0l-6.513 8.354-9.451 10.877c-0.259 0.299-0.445 0.492-0.558 0.581v0c-0.286 0.186-0.738 0.011-1.356-0.526v0c-1.149-0.998-1.553-1.922-1.213-2.773v0l4.34-15.557-9.513 11.009c-0.277 0.319-0.472 0.522-0.584 0.612v0c-0.286 0.186-0.738 0.011-1.356-0.525v0c-1.771-1.539-2.349-2.663-1.733-3.371z" fill="black"></path><path d="M94.339 267.599v0c0.533 0.236 0.649 0.695 0.347 1.374-0.304 0.686-0.542 1.197-0.712 1.533v0c-0.428 0.734-0.965 1.02-1.612 0.858v0c-2.031-0.563-3.509-1.049-4.434-1.46v0c-3.187-1.412-4.981-3.286-5.384-5.62-0.405-2.328 0.432-5.839 2.513-10.533v0c1.518-3.426 2.942-5.926 4.27-7.5 1.328-1.574 2.736-2.468 4.224-2.681 1.494-0.21 3.402 0.199 5.725 1.228 2.323 1.029 3.859 2.147 4.607 3.351v0c0.149 0.242 0.176 0.47 0.082 0.685-0.095 0.214-0.377 0.57-0.847 1.066-0.463 0.499-0.842 0.833-1.137 1.003-0.286 0.166-0.528 0.206-0.724 0.119-0.19-0.084-0.335-0.163-0.434-0.237v0c-1.464-1.03-2.779-1.804-3.943-2.319-1.171-0.519-2.214-0.215-3.131 0.911-0.926 1.129-2.027 3.134-3.304 6.014-1.277 2.88-2.094 4.923-2.452 6.128-0.349 1.202-0.421 2.116-0.215 2.743 0.21 0.635 0.759 1.15 1.647 1.544 0.889 0.394 1.918 0.784 3.089 1.171 1.174 0.396 1.782 0.603 1.825 0.622z" fill="black"></path><path d="M124.128 262.8l6.718 0.888c0.93 0.123 1.34 0.603 1.23 1.441v0c-0.15 1.136-0.323 1.905-0.518 2.305-0.195 0.4-0.581 0.562-1.16 0.485v0l-6.828-0.903-0.981 7.417 8.045 1.064c0.555 0.1 0.922 0.261 1.103 0.48 0.186 0.227 0.254 0.537 0.201 0.929v0c-0.151 1.143-0.361 1.913-0.63 2.311-0.263 0.405-0.71 0.565-1.341 0.482v0l-12.261-1.622-0.485-0.632 3.391-25.638 12.37 1.636c0.994 0.152 1.443 0.59 1.348 1.314v0c-0.103 0.622-0.201 1.109-0.295 1.462-0.094 0.353-0.287 0.689-0.58 1.009-0.292 0.313-0.67 0.439-1.135 0.377v0l-7.765-1.027z" fill="black"></path><path d="M185.565 251.441v0l-0.487-1.322c-0.162-0.412-0.304-0.644-0.426-0.697-0.122-0.053-0.262-0.088-0.419-0.105v0c-0.26-0.02-0.612 0.057-1.055 0.231-0.449 0.177-0.804 0.32-1.063 0.429-0.257 0.115-0.464 0.211-0.621 0.287-0.157 0.076-0.314 0.163-0.471 0.261-0.15 0.095-0.251 0.167-0.303 0.217v0c-0.289 0.236-0.512 0.41-0.67 0.522v0l-1.6 0.629-2.216-2.942c0.88-1.225 2.53-2.313 4.951-3.265v0c1.503-0.591 2.732-0.955 3.686-1.093 0.954-0.138 1.766 0.004 2.436 0.425 0.661 0.417 1.194 0.957 1.598 1.619 0.396 0.658 0.728 1.331 0.999 2.017 0.27 0.686 0.476 1.192 0.618 1.518 0.134 0.322 0.217 0.534 0.25 0.637 0.027 0.105 0.088 0.343 0.185 0.716 0.099 0.379 0.156 0.699 0.171 0.959 0.007 0.256 0.022 0.651 0.044 1.182 0.024 0.538 0.002 1.058-0.067 1.561-0.063 0.5-0.144 1.137-0.243 1.91-0.102 0.767-0.251 1.579-0.448 2.434v0c-0.541 2.654-1.056 4.834-1.545 6.539v0l6.868-2.7 0.73 0.318 1.479 3.762-12.951 5.091-1.593-4.051c1.457-6.04 2.328-10.027 2.612-11.961 0.282-1.94 0.132-3.65-0.449-5.128z" fill="black"></path><path d="M206.628 231.673v0c0.5-0.688 1.241-1.417 2.224-2.184v0c1.643-1.284 3.103-1.979 4.381-2.085 1.284-0.11 2.705 0.43 4.264 1.619 1.554 1.193 3.476 3.256 5.768 6.187v0c3.162 4.046 4.909 7.185 5.242 9.417 0.337 2.238-0.672 4.278-3.028 6.119-2.35 1.837-4.576 2.326-6.677 1.467-2.097-0.854-4.602-3.145-7.517-6.875-2.914-3.729-4.711-6.561-5.391-8.497-0.68-1.936-0.435-3.659 0.734-5.168zM211.695 237.323c0.37 0.647 0.773 1.267 1.212 1.86 0.433 0.597 1.213 1.617 2.339 3.059 1.123 1.437 2.102 2.602 2.938 3.498 0.836 0.895 1.444 1.445 1.825 1.649 0.385 0.21 0.696 0.221 0.934 0.036v0c0.613-0.479 1.068-0.86 1.365-1.143 0.302-0.278 0.537-0.624 0.708-1.038 0.165-0.41 0.221-0.773 0.169-1.09-0.052-0.317-0.25-0.788-0.593-1.412v0c-0.475-0.88-1.476-2.296-3.003-4.251-1.531-1.959-2.713-3.384-3.545-4.274-0.836-0.895-1.454-1.446-1.853-1.652-0.4-0.207-0.729-0.209-0.988-0.007v0c-0.586 0.458-1.037 0.84-1.351 1.145-0.314 0.305-0.54 0.664-0.676 1.078-0.132 0.418-0.173 0.786-0.121 1.102 0.057 0.313 0.271 0.792 0.64 1.44z" fill="black"></path><path d="M236.72 209.572v0l-1.128-0.842c-0.36-0.257-0.606-0.374-0.737-0.353-0.131 0.022-0.267 0.069-0.409 0.141v0c-0.229 0.125-0.482 0.381-0.758 0.768-0.28 0.393-0.499 0.706-0.657 0.939-0.153 0.237-0.274 0.43-0.365 0.58-0.09 0.15-0.174 0.308-0.252 0.475-0.074 0.161-0.119 0.277-0.136 0.348v0c-0.113 0.355-0.206 0.623-0.277 0.803v0l-0.998 1.4-3.462-1.259c0.07-1.506 0.86-3.318 2.37-5.436v0c0.938-1.315 1.769-2.291 2.494-2.926 0.725-0.636 1.483-0.96 2.274-0.972 0.782-0.011 1.522 0.151 2.223 0.485 0.691 0.336 1.336 0.718 1.936 1.147 0.6 0.428 1.049 0.74 1.346 0.935 0.288 0.197 0.473 0.329 0.557 0.397 0.08 0.073 0.261 0.24 0.545 0.5 0.289 0.264 0.512 0.501 0.667 0.71 0.146 0.211 0.373 0.533 0.681 0.967 0.314 0.438 0.579 0.886 0.795 1.345 0.22 0.453 0.5 1.031 0.838 1.734 0.333 0.699 0.651 1.46 0.952 2.284v0c0.994 2.52 1.751 4.628 2.27 6.325v0l4.285-6.009 0.786-0.132 3.291 2.347-8.08 11.33-3.545-2.528c-2.072-5.858-3.516-9.674-4.333-11.45-0.822-1.78-1.88-3.131-3.173-4.054z" fill="black"></path><path d="M257.74 175.629l3.594 1.236-0.664 1.931 10.231 3.519-1.463 4.25-0.715 0.35-9.698-3.337-2.548 7.407-0.716 0.349-14.214-4.921 1.246-3.623 0.715-0.349 10.281 2.941 1.109-3.223-10.617-3.695 1.269-3.689 0.716-0.35 10.277 2.951 0.481-1.398z" fill="black"></path></g></svg></g></svg></g></svg></g><g></g></svg></g><defs><mask></mask></defs></svg><rect width="279.72" height="279.72" fill="black" stroke="none" visibility="hidden"></rect></g></mask><linearGradient x1="0.054" x2="0.941" y1="0.5" y2="0.5" id="da7c021a-fbb0-4125-8115-efe3dfce5c55"><stop stop-color="#9c7945" offset="0"></stop><stop stop-color="#faf3aa" offset="0.498"></stop><stop stop-color="#9c7945" offset="1"></stop></linearGradient><rect width="279.72" height="279.72" fill="url(#da7c021a-fbb0-4125-8115-efe3dfce5c55)" mask="url(#a5d62b7b-b495-4112-94bb-5130b5eb40ff)" data-fill-palette-color="primary"></rect><mask id="fd1e2157-4150-42e1-bbb8-e7a6cac299c6"><g id="SvgjsG6955"><svg viewBox="0 0 279.72 279.72" height="279.72" width="279.72"><g><svg viewBox="0 0 279.72 279.72" height="279.72" width="279.72"><g><svg viewBox="0 0 279.72 279.72" height="279.72" width="279.72"><g id="SvgjsG6954"><svg viewBox="0 0 279.72 279.72" height="279.72" width="279.72" id="SvgjsSvg6953"><g><svg viewBox="0 0 279.72 279.72" height="279.72" width="279.72"><g transform="matrix(1,0,0,1,73.92936372216631,95.17203142083359)"><svg viewBox="0 0 131.8612725556674 89.37593715833285" height="89.37593715833285" width="131.8612725556674"><g id="SvgjsG6952"><svg xmlns="http://www.w3.org/2000/svg" xmlns:xlink="http://www.w3.org/1999/xlink" version="1.1" x="0" y="0" viewBox="6.768000000000001 20.451 72.437 49.09799999999999" style="enable-background:new 0 0 90 90;" xml:space="preserve" height="89.37593715833285" width="131.8612725556674" class="icon-xg-0" data-fill-palette-color="accent" id="SvgjsSvg6951"><g fill="black"><path d="M76.559 20.451H31.47c-1.462 0-2.646 1.185-2.646 2.646v32.135h50.381V23.097C79.205 21.636 78.02 20.451 76.559 20.451zM76.329 53.026H31.702V23.518h44.627V53.026z" fill="black"></path><path d="M75.699 30.108c0 0-9.329 2.357-23.568 9.145C39.703 45.181 32.3 50.995 32.3 50.995v1.557h43.399V30.108z" fill="black"></path><path d="M78.88 55.696H28.392c-0.03 0-0.056 0.007-0.081 0.017L7.363 64.806c-0.419 0.182-0.595 0.357-0.595 0.826 0 0.034 0 3.491 0 3.491 0 0.276 0.298 0.426 0.695 0.426 1.046 0 43.411 0 45.158 0 1.751 0 4.364-0.484 5.838-1.138 1.331-0.591 17.089-7.455 20.132-8.782 0.328-0.142 0.507-0.516 0.503-0.919 0-0.84-0.005-2.812-0.012-2.848C79.063 55.765 78.979 55.696 78.88 55.696zM58.379 64.577c-1.394 0.619-3.976 1.121-5.758 1.121H7.607c-0.275 0-0.417-0.079-0.434-0.15C7.158 65.47 7.259 65.3 7.53 65.185l20.904-9.075h49.449C74.077 57.76 59.647 64.014 58.379 64.577z" fill="black"></path><polygon points="28.092,58.223 31.095,58.223 33.504,57.203 33.504,56.748 31.072,57.811 28.092,57.811  " fill="black"></polygon><polygon points="28.839,59.235 28.839,58.779 26.407,59.839 23.427,59.839 23.427,60.254 26.43,60.254  " fill="black"></polygon><polygon points="18.826,61.873 18.826,62.286 21.827,62.286 24.238,61.266 24.238,60.81 21.804,61.873  " fill="black"></polygon><polygon points="39.684,57.203 39.684,56.748 37.253,57.811 34.274,57.811 34.274,58.223 37.278,58.223  " fill="black"></polygon><polygon points="35.019,59.235 35.019,58.779 32.585,59.839 29.609,59.839 29.609,60.254 32.611,60.254  " fill="black"></polygon><polygon points="25.006,61.873 25.006,62.286 28.01,62.286 30.419,61.266 30.419,60.81 27.985,61.873  " fill="black"></polygon><polygon points="45.865,57.203 45.865,56.748 43.433,57.811 40.454,57.811 40.454,58.223 43.458,58.223  " fill="black"></polygon><polygon points="41.2,59.235 41.2,58.779 38.768,59.839 35.789,59.839 35.789,60.254 38.791,60.254  " fill="black"></polygon><polygon points="31.189,61.873 31.189,62.286 34.191,62.286 36.6,61.266 36.6,60.81 34.168,61.873  " fill="black"></polygon><polygon points="52.047,57.203 52.047,56.748 49.613,57.811 46.635,57.811 46.635,58.223 49.64,58.223  " fill="black"></polygon><polygon points="47.382,59.235 47.382,58.779 44.948,59.839 41.97,59.839 41.97,60.254 44.974,60.254  " fill="black"></polygon><polygon points="37.371,61.873 37.371,62.286 40.374,62.286 42.78,61.266 42.78,60.81 40.351,61.873  " fill="black"></polygon><polygon points="58.228,57.203 58.228,56.748 55.793,57.811 52.816,57.811 52.816,58.223 55.819,58.223  " fill="black"></polygon><polygon points="53.563,59.235 53.563,58.779 51.131,59.839 48.152,59.839 48.152,60.254 51.155,60.254  " fill="black"></polygon><polygon points="43.553,61.873 43.553,62.286 46.555,62.286 48.96,61.266 48.96,60.81 46.529,61.873  " fill="black"></polygon><polygon points="64.408,57.203 64.408,56.748 61.977,57.811 58.999,57.811 58.999,58.223 62,58.223  " fill="black"></polygon><polygon points="59.743,59.235 59.743,58.779 57.311,59.839 54.334,59.839 54.334,60.254 57.335,60.254  " fill="black"></polygon><polygon points="49.731,61.873 49.731,62.286 52.734,62.286 55.143,61.266 55.143,60.81 52.711,61.873  " fill="black"></polygon><polygon points="70.589,57.203 70.589,56.748 68.157,57.811 65.177,57.811 65.177,58.223 68.183,58.223  " fill="black"></polygon><polygon points="60.515,59.839 60.515,60.254 63.518,60.254 65.923,59.235 65.923,58.779 63.492,59.839  " fill="black"></polygon><polygon points="55.914,61.873 55.914,62.286 58.915,62.286 61.323,61.266 61.323,60.81 58.889,61.873  " fill="black"></polygon></g></svg></g></svg></g><g id="SvgjsG6950"></g><g id="SvgjsG6949"><path d="M12.312 180.135c0.422-0.663 0.782-1.045 1.081-1.145 0.299-0.1 0.796 0.025 1.491 0.373 0.704 0.352 1.105 0.603 1.205 0.754 0.1 0.151 0.176 0.305 0.229 0.464 0.051 0.153 0.034 0.441-0.051 0.865v0c-0.742 2.077-0.907 3.736-0.494 4.976 0.415 1.247 0.975 1.961 1.678 2.143 0.706 0.189 1.526 0.128 2.461-0.183 0.935-0.311 1.581-0.897 1.937-1.758 0.35-0.858 0.685-2.185 1.006-3.981 0.312-1.8 0.935-3.484 1.868-5.052 0.933-1.568 2.102-2.587 3.508-3.055v0c2.487-0.828 4.519-0.784 6.095 0.132 1.579 0.923 2.787 2.64 3.623 5.153v0c0.51 1.533 0.644 3.152 0.4 4.858v0c-0.051 0.886-0.253 1.363-0.605 1.431v0c-0.142 0.019-0.35 0.064-0.623 0.133v0c-1.338-0.028-2.132-0.124-2.385-0.287v0c-0.066-0.049-0.138-0.191-0.216-0.426-0.076-0.229-0.1-0.906-0.072-2.032 0.036-1.121-0.062-2.032-0.295-2.731-0.233-0.7-0.673-1.203-1.32-1.511-0.644-0.301-1.409-0.305-2.292-0.01-0.89 0.297-1.565 0.966-2.023 2.009-0.452 1.041-0.791 2.524-1.019 4.451v0c-0.325 2.058-0.831 3.689-1.518 4.894-0.687 1.204-1.851 2.079-3.492 2.625v0c-5.47 1.822-8.974 0.42-10.514-4.203v0c-1.148-3.447-1.036-6.409 0.337-8.887z" fill="white"></path><path d="M29.766 215.149v0l0.704 1.053 14.93-9.98-0.587-0.878c-0.244-0.401-0.294-0.747-0.149-1.037v0c0.18-0.322 0.629-0.723 1.348-1.204v0c1.092-0.73 1.855-0.772 2.287-0.125v0l3.453 5.166c0.574 0.858 0.56 1.489-0.042 1.891v0c-1.733 1.159-2.827 1.398-3.282 0.718v0l-0.491-0.736-5.648 4.199-9.064 6.107 0.587 0.878c0.432 0.695 0.347 1.243-0.255 1.646v0c-1.759 1.12-2.944 1.222-3.555 0.308v0l-3.694-5.525c-0.218-0.362-0.255-0.689-0.11-0.979v0c0.18-0.322 0.641-0.731 1.382-1.226v0c1.092-0.73 1.821-0.822 2.186-0.276z" fill="white"></path><path d="M47.355 241.799v0l16.297-18.755c0.567-0.653 1.488-0.425 2.763 0.683v0c0.263 0.229 0.464 0.416 0.603 0.563 0.134 0.152 0.249 0.403 0.345 0.753 0.105 0.349 0.123 0.742 0.054 1.179v0l-4.938 15.264 9.496-11.25c0.554-0.638 1.469-0.402 2.744 0.706v0c0.531 0.462 0.84 0.837 0.927 1.125 0.087 0.298-0.031 0.648-0.354 1.051v0l-6.513 8.354-9.451 10.877c-0.259 0.299-0.445 0.492-0.558 0.581v0c-0.286 0.186-0.738 0.011-1.356-0.526v0c-1.149-0.998-1.553-1.922-1.213-2.773v0l4.34-15.557-9.513 11.009c-0.277 0.319-0.472 0.522-0.584 0.612v0c-0.286 0.186-0.738 0.011-1.356-0.525v0c-1.771-1.539-2.349-2.663-1.733-3.371z" fill="white"></path><path d="M94.339 267.599v0c0.533 0.236 0.649 0.695 0.347 1.374-0.304 0.686-0.542 1.197-0.712 1.533v0c-0.428 0.734-0.965 1.02-1.612 0.858v0c-2.031-0.563-3.509-1.049-4.434-1.46v0c-3.187-1.412-4.981-3.286-5.384-5.62-0.405-2.328 0.432-5.839 2.513-10.533v0c1.518-3.426 2.942-5.926 4.27-7.5 1.328-1.574 2.736-2.468 4.224-2.681 1.494-0.21 3.402 0.199 5.725 1.228 2.323 1.029 3.859 2.147 4.607 3.351v0c0.149 0.242 0.176 0.47 0.082 0.685-0.095 0.214-0.377 0.57-0.847 1.066-0.463 0.499-0.842 0.833-1.137 1.003-0.286 0.166-0.528 0.206-0.724 0.119-0.19-0.084-0.335-0.163-0.434-0.237v0c-1.464-1.03-2.779-1.804-3.943-2.319-1.171-0.519-2.214-0.215-3.131 0.911-0.926 1.129-2.027 3.134-3.304 6.014-1.277 2.88-2.094 4.923-2.452 6.128-0.349 1.202-0.421 2.116-0.215 2.743 0.21 0.635 0.759 1.15 1.647 1.544 0.889 0.394 1.918 0.784 3.089 1.171 1.174 0.396 1.782 0.603 1.825 0.622z" fill="white"></path><path d="M124.128 262.8l6.718 0.888c0.93 0.123 1.34 0.603 1.23 1.441v0c-0.15 1.136-0.323 1.905-0.518 2.305-0.195 0.4-0.581 0.562-1.16 0.485v0l-6.828-0.903-0.981 7.417 8.045 1.064c0.555 0.1 0.922 0.261 1.103 0.48 0.186 0.227 0.254 0.537 0.201 0.929v0c-0.151 1.143-0.361 1.913-0.63 2.311-0.263 0.405-0.71 0.565-1.341 0.482v0l-12.261-1.622-0.485-0.632 3.391-25.638 12.37 1.636c0.994 0.152 1.443 0.59 1.348 1.314v0c-0.103 0.622-0.201 1.109-0.295 1.462-0.094 0.353-0.287 0.689-0.58 1.009-0.292 0.313-0.67 0.439-1.135 0.377v0l-7.765-1.027z" fill="white"></path><path d="M185.565 251.441v0l-0.487-1.322c-0.162-0.412-0.304-0.644-0.426-0.697-0.122-0.053-0.262-0.088-0.419-0.105v0c-0.26-0.02-0.612 0.057-1.055 0.231-0.449 0.177-0.804 0.32-1.063 0.429-0.257 0.115-0.464 0.211-0.621 0.287-0.157 0.076-0.314 0.163-0.471 0.261-0.15 0.095-0.251 0.167-0.303 0.217v0c-0.289 0.236-0.512 0.41-0.67 0.522v0l-1.6 0.629-2.216-2.942c0.88-1.225 2.53-2.313 4.951-3.265v0c1.503-0.591 2.732-0.955 3.686-1.093 0.954-0.138 1.766 0.004 2.436 0.425 0.661 0.417 1.194 0.957 1.598 1.619 0.396 0.658 0.728 1.331 0.999 2.017 0.27 0.686 0.476 1.192 0.618 1.518 0.134 0.322 0.217 0.534 0.25 0.637 0.027 0.105 0.088 0.343 0.185 0.716 0.099 0.379 0.156 0.699 0.171 0.959 0.007 0.256 0.022 0.651 0.044 1.182 0.024 0.538 0.002 1.058-0.067 1.561-0.063 0.5-0.144 1.137-0.243 1.91-0.102 0.767-0.251 1.579-0.448 2.434v0c-0.541 2.654-1.056 4.834-1.545 6.539v0l6.868-2.7 0.73 0.318 1.479 3.762-12.951 5.091-1.593-4.051c1.457-6.04 2.328-10.027 2.612-11.961 0.282-1.94 0.132-3.65-0.449-5.128z" fill="white"></path><path d="M206.628 231.673v0c0.5-0.688 1.241-1.417 2.224-2.184v0c1.643-1.284 3.103-1.979 4.381-2.085 1.284-0.11 2.705 0.43 4.264 1.619 1.554 1.193 3.476 3.256 5.768 6.187v0c3.162 4.046 4.909 7.185 5.242 9.417 0.337 2.238-0.672 4.278-3.028 6.119-2.35 1.837-4.576 2.326-6.677 1.467-2.097-0.854-4.602-3.145-7.517-6.875-2.914-3.729-4.711-6.561-5.391-8.497-0.68-1.936-0.435-3.659 0.734-5.168zM211.695 237.323c0.37 0.647 0.773 1.267 1.212 1.86 0.433 0.597 1.213 1.617 2.339 3.059 1.123 1.437 2.102 2.602 2.938 3.498 0.836 0.895 1.444 1.445 1.825 1.649 0.385 0.21 0.696 0.221 0.934 0.036v0c0.613-0.479 1.068-0.86 1.365-1.143 0.302-0.278 0.537-0.624 0.708-1.038 0.165-0.41 0.221-0.773 0.169-1.09-0.052-0.317-0.25-0.788-0.593-1.412v0c-0.475-0.88-1.476-2.296-3.003-4.251-1.531-1.959-2.713-3.384-3.545-4.274-0.836-0.895-1.454-1.446-1.853-1.652-0.4-0.207-0.729-0.209-0.988-0.007v0c-0.586 0.458-1.037 0.84-1.351 1.145-0.314 0.305-0.54 0.664-0.676 1.078-0.132 0.418-0.173 0.786-0.121 1.102 0.057 0.313 0.271 0.792 0.64 1.44z" fill="white"></path><path d="M236.72 209.572v0l-1.128-0.842c-0.36-0.257-0.606-0.374-0.737-0.353-0.131 0.022-0.267 0.069-0.409 0.141v0c-0.229 0.125-0.482 0.381-0.758 0.768-0.28 0.393-0.499 0.706-0.657 0.939-0.153 0.237-0.274 0.43-0.365 0.58-0.09 0.15-0.174 0.308-0.252 0.475-0.074 0.161-0.119 0.277-0.136 0.348v0c-0.113 0.355-0.206 0.623-0.277 0.803v0l-0.998 1.4-3.462-1.259c0.07-1.506 0.86-3.318 2.37-5.436v0c0.938-1.315 1.769-2.291 2.494-2.926 0.725-0.636 1.483-0.96 2.274-0.972 0.782-0.011 1.522 0.151 2.223 0.485 0.691 0.336 1.336 0.718 1.936 1.147 0.6 0.428 1.049 0.74 1.346 0.935 0.288 0.197 0.473 0.329 0.557 0.397 0.08 0.073 0.261 0.24 0.545 0.5 0.289 0.264 0.512 0.501 0.667 0.71 0.146 0.211 0.373 0.533 0.681 0.967 0.314 0.438 0.579 0.886 0.795 1.345 0.22 0.453 0.5 1.031 0.838 1.734 0.333 0.699 0.651 1.46 0.952 2.284v0c0.994 2.52 1.751 4.628 2.27 6.325v0l4.285-6.009 0.786-0.132 3.291 2.347-8.08 11.33-3.545-2.528c-2.072-5.858-3.516-9.674-4.333-11.45-0.822-1.78-1.88-3.131-3.173-4.054z" fill="white"></path><path d="M257.74 175.629l3.594 1.236-0.664 1.931 10.231 3.519-1.463 4.25-0.715 0.35-9.698-3.337-2.548 7.407-0.716 0.349-14.214-4.921 1.246-3.623 0.715-0.349 10.281 2.941 1.109-3.223-10.617-3.695 1.269-3.689 0.716-0.35 10.277 2.951 0.481-1.398z" fill="white"></path></g></svg></g></svg></g></svg></g><g></g></svg></g><defs><mask></mask></defs><mask><g id="SvgjsG6948"><svg viewBox="0 0 279.72 279.72" height="279.72" width="279.72"><g><svg viewBox="0 0 279.72 279.72" height="279.72" width="279.72"><g><svg viewBox="0 0 279.72 279.72" height="279.72" width="279.72"><g id="SvgjsG6947"><svg viewBox="0 0 279.72 279.72" height="279.72" width="279.72" id="SvgjsSvg6946"><g><svg viewBox="0 0 279.72 279.72" height="279.72" width="279.72"><g transform="matrix(1,0,0,1,73.92936372216631,95.17203142083359)"><svg viewBox="0 0 131.8612725556674 89.37593715833285" height="89.37593715833285" width="131.8612725556674"><g id="SvgjsG6945"><svg xmlns="http://www.w3.org/2000/svg" xmlns:xlink="http://www.w3.org/1999/xlink" version="1.1" x="0" y="0" viewBox="6.768000000000001 20.451 72.437 49.09799999999999" style="enable-background:new 0 0 90 90;" xml:space="preserve" height="89.37593715833285" width="131.8612725556674" class="icon-xg-0" data-fill-palette-color="accent" id="SvgjsSvg6944"><g fill="black"><path d="M76.559 20.451H31.47c-1.462 0-2.646 1.185-2.646 2.646v32.135h50.381V23.097C79.205 21.636 78.02 20.451 76.559 20.451zM76.329 53.026H31.702V23.518h44.627V53.026z" fill="black"></path><path d="M75.699 30.108c0 0-9.329 2.357-23.568 9.145C39.703 45.181 32.3 50.995 32.3 50.995v1.557h43.399V30.108z" fill="black"></path><path d="M78.88 55.696H28.392c-0.03 0-0.056 0.007-0.081 0.017L7.363 64.806c-0.419 0.182-0.595 0.357-0.595 0.826 0 0.034 0 3.491 0 3.491 0 0.276 0.298 0.426 0.695 0.426 1.046 0 43.411 0 45.158 0 1.751 0 4.364-0.484 5.838-1.138 1.331-0.591 17.089-7.455 20.132-8.782 0.328-0.142 0.507-0.516 0.503-0.919 0-0.84-0.005-2.812-0.012-2.848C79.063 55.765 78.979 55.696 78.88 55.696zM58.379 64.577c-1.394 0.619-3.976 1.121-5.758 1.121H7.607c-0.275 0-0.417-0.079-0.434-0.15C7.158 65.47 7.259 65.3 7.53 65.185l20.904-9.075h49.449C74.077 57.76 59.647 64.014 58.379 64.577z" fill="black"></path><polygon points="28.092,58.223 31.095,58.223 33.504,57.203 33.504,56.748 31.072,57.811 28.092,57.811  " fill="black"></polygon><polygon points="28.839,59.235 28.839,58.779 26.407,59.839 23.427,59.839 23.427,60.254 26.43,60.254  " fill="black"></polygon><polygon points="18.826,61.873 18.826,62.286 21.827,62.286 24.238,61.266 24.238,60.81 21.804,61.873  " fill="black"></polygon><polygon points="39.684,57.203 39.684,56.748 37.253,57.811 34.274,57.811 34.274,58.223 37.278,58.223  " fill="black"></polygon><polygon points="35.019,59.235 35.019,58.779 32.585,59.839 29.609,59.839 29.609,60.254 32.611,60.254  " fill="black"></polygon><polygon points="25.006,61.873 25.006,62.286 28.01,62.286 30.419,61.266 30.419,60.81 27.985,61.873  " fill="black"></polygon><polygon points="45.865,57.203 45.865,56.748 43.433,57.811 40.454,57.811 40.454,58.223 43.458,58.223  " fill="black"></polygon><polygon points="41.2,59.235 41.2,58.779 38.768,59.839 35.789,59.839 35.789,60.254 38.791,60.254  " fill="black"></polygon><polygon points="31.189,61.873 31.189,62.286 34.191,62.286 36.6,61.266 36.6,60.81 34.168,61.873  " fill="black"></polygon><polygon points="52.047,57.203 52.047,56.748 49.613,57.811 46.635,57.811 46.635,58.223 49.64,58.223  " fill="black"></polygon><polygon points="47.382,59.235 47.382,58.779 44.948,59.839 41.97,59.839 41.97,60.254 44.974,60.254  " fill="black"></polygon><polygon points="37.371,61.873 37.371,62.286 40.374,62.286 42.78,61.266 42.78,60.81 40.351,61.873  " fill="black"></polygon><polygon points="58.228,57.203 58.228,56.748 55.793,57.811 52.816,57.811 52.816,58.223 55.819,58.223  " fill="black"></polygon><polygon points="53.563,59.235 53.563,58.779 51.131,59.839 48.152,59.839 48.152,60.254 51.155,60.254  " fill="black"></polygon><polygon points="43.553,61.873 43.553,62.286 46.555,62.286 48.96,61.266 48.96,60.81 46.529,61.873  " fill="black"></polygon><polygon points="64.408,57.203 64.408,56.748 61.977,57.811 58.999,57.811 58.999,58.223 62,58.223  " fill="black"></polygon><polygon points="59.743,59.235 59.743,58.779 57.311,59.839 54.334,59.839 54.334,60.254 57.335,60.254  " fill="black"></polygon><polygon points="49.731,61.873 49.731,62.286 52.734,62.286 55.143,61.266 55.143,60.81 52.711,61.873  " fill="black"></polygon><polygon points="70.589,57.203 70.589,56.748 68.157,57.811 65.177,57.811 65.177,58.223 68.183,58.223  " fill="black"></polygon><polygon points="60.515,59.839 60.515,60.254 63.518,60.254 65.923,59.235 65.923,58.779 63.492,59.839  " fill="black"></polygon><polygon points="55.914,61.873 55.914,62.286 58.915,62.286 61.323,61.266 61.323,60.81 58.889,61.873  " fill="black"></polygon></g></svg></g></svg></g><g id="SvgjsG6943"><path d="M31.169 99.413v0l-15.416-5.259 3.358 3.611-1.169 3.426-4.752 0.694 15.321 5.227c0.406 0.139 0.671 0.243 0.796 0.314v0c0.287 0.197 0.295 0.692 0.025 1.485v0c-0.77 2.259-1.574 3.245-2.412 2.96v0l-24.077-8.214c-0.856-0.292-1.019-1.219-0.486-2.779 0.532-1.561 1.271-2.357 2.217-2.388v0l9.924-0.44-7.566-6.597c-0.432-0.353-0.683-0.686-0.753-1-0.07-0.314 0.007-0.798 0.229-1.452v0c0.556-1.631 1.28-2.308 2.17-2.032v0l10.302 2.908 13.684 4.668c0.679 0.232 1.076 0.438 1.192 0.619 0.117 0.175 0.058 0.608-0.178 1.3-0.236 0.692-0.45 1.245-0.641 1.661-0.189 0.41-0.443 0.759-0.761 1.047-0.309 0.284-0.645 0.364-1.007 0.241z" fill="black"></path><path d="M51.211 66.261v0l-16.413-14.53-2.972 3.358c-0.397 0.418-0.759 0.595-1.086 0.529v0c-0.393-0.062-0.913-0.379-1.561-0.952v0c-1.019-0.902-1.26-1.657-0.722-2.264v0l8.658-9.78c0.92-1.039 1.658-1.312 2.215-0.819v0c1.591 1.409 2.007 2.542 1.247 3.401v0l-2.689 2.991 5.664 4.585 10.959 9.647c0.341 0.302 0.556 0.51 0.643 0.623v0c0.189 0.292 0.005 0.752-0.55 1.38v0c-1.6 1.807-2.731 2.417-3.393 1.831z" fill="black"></path><path d="M114.111 26.059c-0.6-0.531-0.926-0.955-0.98-1.272-0.055-0.324 0.149-0.807 0.612-1.45 0.461-0.649 0.777-1.012 0.948-1.088 0.17-0.083 0.337-0.139 0.502-0.167 0.159-0.027 0.448 0.036 0.868 0.19v0c1.976 1.073 3.622 1.499 4.937 1.277 1.322-0.223 2.133-0.677 2.432-1.36 0.299-0.683 0.365-1.52 0.198-2.511-0.168-0.991-0.66-1.731-1.476-2.218-0.811-0.495-2.097-1.043-3.857-1.643-1.76-0.6-3.36-1.496-4.799-2.687-1.438-1.185-2.282-2.521-2.533-4.008v0c-0.447-2.644-0.085-4.687 1.085-6.128 1.176-1.45 3.096-2.4 5.759-2.85v0c1.633-0.276 3.291-0.155 4.977 0.362v0c0.882 0.191 1.33 0.465 1.342 0.824v0c-0.003 0.143 0.01 0.359 0.038 0.646v0c-0.234 1.352-0.454 2.143-0.659 2.375v0c-0.065 0.059-0.22 0.108-0.464 0.15-0.251 0.042-0.938-0.042-2.062-0.253-1.13-0.21-2.065-0.253-2.805-0.128-0.74 0.125-1.315 0.487-1.724 1.087-0.407 0.606-0.531 1.381-0.371 2.327 0.159 0.939 0.726 1.72 1.701 2.343 0.982 0.623 2.426 1.198 4.33 1.726v0c2.027 0.65 3.594 1.415 4.702 2.295 1.107 0.88 1.808 2.193 2.103 3.938v0c0.981 5.803-0.981 9.119-5.885 9.948v0c-3.655 0.618-6.628 0.043-8.919-1.725z" fill="black"></path><path d="M161.298 24.634l2.353-11.783-2.82-0.563c-0.276-0.055-0.421-0.152-0.434-0.292-0.008-0.131 0.005-0.279 0.037-0.444v0c0.202-1.012 0.485-1.52 0.848-1.522v0l2.932 0.001 2.766-3.58c0.346-0.293 0.919-0.36 1.721-0.2v0c0.21 0.042 0.324 0.502 0.34 1.38 0.021 0.886 0.007 2.004-0.045 3.355v0l3.383 0.675c0.375 0.075 0.468 0.582 0.28 1.522-0.188 0.94-0.469 1.373-0.843 1.298v0l-3.422-0.683-2.233 11.182-0.223 4.097-0.006 0.03c-0.008 0.142-0.027 0.237-0.057 0.286v0c-0.155 0.16-0.762 0.135-1.82-0.077v0c-1.052-0.21-1.641-0.546-1.768-1.009v0z" fill="black"></path><path d="M199.719 31.463v0c1.329-2.243 2.532-3.825 3.608-4.746 1.072-0.915 2.156-1.337 3.25-1.265 1.091 0.078 2.462 0.606 4.112 1.583 1.644 0.974 2.762 1.921 3.354 2.841 0.595 0.929 0.745 2.082 0.451 3.459-0.291 1.386-1.102 3.2-2.431 5.443v0c-1.828 3.085-3.537 4.963-5.127 5.634-1.595 0.667-3.564 0.307-5.905-1.08-2.347-1.391-3.611-2.946-3.792-4.666-0.175-1.717 0.652-4.118 2.48-7.203zM203.915 33.949v0c-2.047 3.454-2.742 5.376-2.085 5.766v0c0.905 0.537 1.66 0.789 2.263 0.757v0c0.326-0.025 0.658-0.229 0.995-0.614v0c0.674-0.769 1.517-2.007 2.529-3.715v0c2.023-3.414 2.706-5.316 2.049-5.705v0c-1.234-0.731-2.163-0.9-2.787-0.506-0.623 0.394-1.612 1.733-2.964 4.017z" fill="black"></path><path d="M245.032 57.67l-0.615 1.415c2.277 0.686 3.613 1.274 4.009 1.764 0.4 0.495 0.666 1.017 0.798 1.565 0.137 0.553 0.189 0.997 0.159 1.333v0l-0.048 0.452c-1.422 0.683-2.34 1.071-2.756 1.165-0.419 0.089-0.73 0.008-0.932-0.242-0.202-0.25-0.359-0.653-0.472-1.209-0.107-0.56-0.289-0.998-0.546-1.316-0.253-0.313-1.052-0.71-2.397-1.192v0l-10.272 8.294c-0.11 0.088-0.2 0.131-0.271 0.128v0c-0.209 0.04-0.56-0.246-1.053-0.856-0.497-0.615-0.913-1.227-1.249-1.834-0.331-0.603-0.442-0.948-0.333-1.037v0l13.847-11.181c0.297-0.24 0.783 0.057 1.457 0.892 0.678 0.84 0.921 1.445 0.729 1.815v0z" fill="black"></path><path d="M251.005 106.108v0c-0.831-2.422-0.751-4.328 0.239-5.717 0.991-1.389 3.182-2.665 6.575-3.828v0c2.441-0.837 4.376-1.26 5.804-1.269 1.422-0.006 2.517 0.345 3.285 1.053 0.761 0.71 1.433 1.914 2.015 3.613 0.581 1.693 0.783 3.058 0.609 4.097-0.178 1.032-0.84 1.971-1.989 2.819-1.152 0.856-2.914 1.691-5.285 2.504v0c-0.139 0.048-0.276 0.095-0.409 0.14-0.139 0.048-0.358-0.175-0.654-0.668-0.291-0.496-0.564-1.118-0.821-1.866v0l-1.791-5.221c-2.635 0.954-4.076 1.66-4.322 2.12v0c-0.106 0.27-0.081 0.63 0.073 1.081v0c1.016 2.961 1.857 4.937 2.522 5.927v0c0.041 0.036 0.064 0.063 0.071 0.082v0c0.099 0.143 0.051 0.305-0.142 0.485-0.193 0.18-0.709 0.413-1.546 0.7-0.837 0.287-1.362 0.265-1.574-0.066v0c-0.679-0.802-1.566-2.797-2.66-5.986zM263.937 99.928v0l-2.644 0.907 1.175 3.424c2.595-0.989 3.818-1.7 3.67-2.131v0c-0.263-0.767-0.595-1.362-0.995-1.785-0.392-0.418-0.793-0.557-1.206-0.415z" fill="black"></path><path d="M3.482 143.5c0-5.812 4.712-10.524 10.525-10.525 5.812 0 10.524 4.712 10.524 10.525 0 5.812-4.712 10.524-10.524 10.524-5.812 0-10.524-4.712-10.525-10.524z" fill="black"></path><path d="M256.62 143.5c0-5.812 4.712-10.524 10.525-10.525 5.812 0 10.524 4.712 10.524 10.525 0 5.812-4.712 10.524-10.524 10.524-5.812 0-10.524-4.712-10.525-10.524z" fill="black"></path></g><g id="SvgjsG6942"><path d="M12.312 180.135c0.422-0.663 0.782-1.045 1.081-1.145 0.299-0.1 0.796 0.025 1.491 0.373 0.704 0.352 1.105 0.603 1.205 0.754 0.1 0.151 0.176 0.305 0.229 0.464 0.051 0.153 0.034 0.441-0.051 0.865v0c-0.742 2.077-0.907 3.736-0.494 4.976 0.415 1.247 0.975 1.961 1.678 2.143 0.706 0.189 1.526 0.128 2.461-0.183 0.935-0.311 1.581-0.897 1.937-1.758 0.35-0.858 0.685-2.185 1.006-3.981 0.312-1.8 0.935-3.484 1.868-5.052 0.933-1.568 2.102-2.587 3.508-3.055v0c2.487-0.828 4.519-0.784 6.095 0.132 1.579 0.923 2.787 2.64 3.623 5.153v0c0.51 1.533 0.644 3.152 0.4 4.858v0c-0.051 0.886-0.253 1.363-0.605 1.431v0c-0.142 0.019-0.35 0.064-0.623 0.133v0c-1.338-0.028-2.132-0.124-2.385-0.287v0c-0.066-0.049-0.138-0.191-0.216-0.426-0.076-0.229-0.1-0.906-0.072-2.032 0.036-1.121-0.062-2.032-0.295-2.731-0.233-0.7-0.673-1.203-1.32-1.511-0.644-0.301-1.409-0.305-2.292-0.01-0.89 0.297-1.565 0.966-2.023 2.009-0.452 1.041-0.791 2.524-1.019 4.451v0c-0.325 2.058-0.831 3.689-1.518 4.894-0.687 1.204-1.851 2.079-3.492 2.625v0c-5.47 1.822-8.974 0.42-10.514-4.203v0c-1.148-3.447-1.036-6.409 0.337-8.887z" fill="black"></path><path d="M29.766 215.149v0l0.704 1.053 14.93-9.98-0.587-0.878c-0.244-0.401-0.294-0.747-0.149-1.037v0c0.18-0.322 0.629-0.723 1.348-1.204v0c1.092-0.73 1.855-0.772 2.287-0.125v0l3.453 5.166c0.574 0.858 0.56 1.489-0.042 1.891v0c-1.733 1.159-2.827 1.398-3.282 0.718v0l-0.491-0.736-5.648 4.199-9.064 6.107 0.587 0.878c0.432 0.695 0.347 1.243-0.255 1.646v0c-1.759 1.12-2.944 1.222-3.555 0.308v0l-3.694-5.525c-0.218-0.362-0.255-0.689-0.11-0.979v0c0.18-0.322 0.641-0.731 1.382-1.226v0c1.092-0.73 1.821-0.822 2.186-0.276z" fill="black"></path><path d="M47.355 241.799v0l16.297-18.755c0.567-0.653 1.488-0.425 2.763 0.683v0c0.263 0.229 0.464 0.416 0.603 0.563 0.134 0.152 0.249 0.403 0.345 0.753 0.105 0.349 0.123 0.742 0.054 1.179v0l-4.938 15.264 9.496-11.25c0.554-0.638 1.469-0.402 2.744 0.706v0c0.531 0.462 0.84 0.837 0.927 1.125 0.087 0.298-0.031 0.648-0.354 1.051v0l-6.513 8.354-9.451 10.877c-0.259 0.299-0.445 0.492-0.558 0.581v0c-0.286 0.186-0.738 0.011-1.356-0.526v0c-1.149-0.998-1.553-1.922-1.213-2.773v0l4.34-15.557-9.513 11.009c-0.277 0.319-0.472 0.522-0.584 0.612v0c-0.286 0.186-0.738 0.011-1.356-0.525v0c-1.771-1.539-2.349-2.663-1.733-3.371z" fill="black"></path><path d="M94.339 267.599v0c0.533 0.236 0.649 0.695 0.347 1.374-0.304 0.686-0.542 1.197-0.712 1.533v0c-0.428 0.734-0.965 1.02-1.612 0.858v0c-2.031-0.563-3.509-1.049-4.434-1.46v0c-3.187-1.412-4.981-3.286-5.384-5.62-0.405-2.328 0.432-5.839 2.513-10.533v0c1.518-3.426 2.942-5.926 4.27-7.5 1.328-1.574 2.736-2.468 4.224-2.681 1.494-0.21 3.402 0.199 5.725 1.228 2.323 1.029 3.859 2.147 4.607 3.351v0c0.149 0.242 0.176 0.47 0.082 0.685-0.095 0.214-0.377 0.57-0.847 1.066-0.463 0.499-0.842 0.833-1.137 1.003-0.286 0.166-0.528 0.206-0.724 0.119-0.19-0.084-0.335-0.163-0.434-0.237v0c-1.464-1.03-2.779-1.804-3.943-2.319-1.171-0.519-2.214-0.215-3.131 0.911-0.926 1.129-2.027 3.134-3.304 6.014-1.277 2.88-2.094 4.923-2.452 6.128-0.349 1.202-0.421 2.116-0.215 2.743 0.21 0.635 0.759 1.15 1.647 1.544 0.889 0.394 1.918 0.784 3.089 1.171 1.174 0.396 1.782 0.603 1.825 0.622z" fill="black"></path><path d="M124.128 262.8l6.718 0.888c0.93 0.123 1.34 0.603 1.23 1.441v0c-0.15 1.136-0.323 1.905-0.518 2.305-0.195 0.4-0.581 0.562-1.16 0.485v0l-6.828-0.903-0.981 7.417 8.045 1.064c0.555 0.1 0.922 0.261 1.103 0.48 0.186 0.227 0.254 0.537 0.201 0.929v0c-0.151 1.143-0.361 1.913-0.63 2.311-0.263 0.405-0.71 0.565-1.341 0.482v0l-12.261-1.622-0.485-0.632 3.391-25.638 12.37 1.636c0.994 0.152 1.443 0.59 1.348 1.314v0c-0.103 0.622-0.201 1.109-0.295 1.462-0.094 0.353-0.287 0.689-0.58 1.009-0.292 0.313-0.67 0.439-1.135 0.377v0l-7.765-1.027z" fill="black"></path><path d="M185.565 251.441v0l-0.487-1.322c-0.162-0.412-0.304-0.644-0.426-0.697-0.122-0.053-0.262-0.088-0.419-0.105v0c-0.26-0.02-0.612 0.057-1.055 0.231-0.449 0.177-0.804 0.32-1.063 0.429-0.257 0.115-0.464 0.211-0.621 0.287-0.157 0.076-0.314 0.163-0.471 0.261-0.15 0.095-0.251 0.167-0.303 0.217v0c-0.289 0.236-0.512 0.41-0.67 0.522v0l-1.6 0.629-2.216-2.942c0.88-1.225 2.53-2.313 4.951-3.265v0c1.503-0.591 2.732-0.955 3.686-1.093 0.954-0.138 1.766 0.004 2.436 0.425 0.661 0.417 1.194 0.957 1.598 1.619 0.396 0.658 0.728 1.331 0.999 2.017 0.27 0.686 0.476 1.192 0.618 1.518 0.134 0.322 0.217 0.534 0.25 0.637 0.027 0.105 0.088 0.343 0.185 0.716 0.099 0.379 0.156 0.699 0.171 0.959 0.007 0.256 0.022 0.651 0.044 1.182 0.024 0.538 0.002 1.058-0.067 1.561-0.063 0.5-0.144 1.137-0.243 1.91-0.102 0.767-0.251 1.579-0.448 2.434v0c-0.541 2.654-1.056 4.834-1.545 6.539v0l6.868-2.7 0.73 0.318 1.479 3.762-12.951 5.091-1.593-4.051c1.457-6.04 2.328-10.027 2.612-11.961 0.282-1.94 0.132-3.65-0.449-5.128z" fill="black"></path><path d="M206.628 231.673v0c0.5-0.688 1.241-1.417 2.224-2.184v0c1.643-1.284 3.103-1.979 4.381-2.085 1.284-0.11 2.705 0.43 4.264 1.619 1.554 1.193 3.476 3.256 5.768 6.187v0c3.162 4.046 4.909 7.185 5.242 9.417 0.337 2.238-0.672 4.278-3.028 6.119-2.35 1.837-4.576 2.326-6.677 1.467-2.097-0.854-4.602-3.145-7.517-6.875-2.914-3.729-4.711-6.561-5.391-8.497-0.68-1.936-0.435-3.659 0.734-5.168zM211.695 237.323c0.37 0.647 0.773 1.267 1.212 1.86 0.433 0.597 1.213 1.617 2.339 3.059 1.123 1.437 2.102 2.602 2.938 3.498 0.836 0.895 1.444 1.445 1.825 1.649 0.385 0.21 0.696 0.221 0.934 0.036v0c0.613-0.479 1.068-0.86 1.365-1.143 0.302-0.278 0.537-0.624 0.708-1.038 0.165-0.41 0.221-0.773 0.169-1.09-0.052-0.317-0.25-0.788-0.593-1.412v0c-0.475-0.88-1.476-2.296-3.003-4.251-1.531-1.959-2.713-3.384-3.545-4.274-0.836-0.895-1.454-1.446-1.853-1.652-0.4-0.207-0.729-0.209-0.988-0.007v0c-0.586 0.458-1.037 0.84-1.351 1.145-0.314 0.305-0.54 0.664-0.676 1.078-0.132 0.418-0.173 0.786-0.121 1.102 0.057 0.313 0.271 0.792 0.64 1.44z" fill="black"></path><path d="M236.72 209.572v0l-1.128-0.842c-0.36-0.257-0.606-0.374-0.737-0.353-0.131 0.022-0.267 0.069-0.409 0.141v0c-0.229 0.125-0.482 0.381-0.758 0.768-0.28 0.393-0.499 0.706-0.657 0.939-0.153 0.237-0.274 0.43-0.365 0.58-0.09 0.15-0.174 0.308-0.252 0.475-0.074 0.161-0.119 0.277-0.136 0.348v0c-0.113 0.355-0.206 0.623-0.277 0.803v0l-0.998 1.4-3.462-1.259c0.07-1.506 0.86-3.318 2.37-5.436v0c0.938-1.315 1.769-2.291 2.494-2.926 0.725-0.636 1.483-0.96 2.274-0.972 0.782-0.011 1.522 0.151 2.223 0.485 0.691 0.336 1.336 0.718 1.936 1.147 0.6 0.428 1.049 0.74 1.346 0.935 0.288 0.197 0.473 0.329 0.557 0.397 0.08 0.073 0.261 0.24 0.545 0.5 0.289 0.264 0.512 0.501 0.667 0.71 0.146 0.211 0.373 0.533 0.681 0.967 0.314 0.438 0.579 0.886 0.795 1.345 0.22 0.453 0.5 1.031 0.838 1.734 0.333 0.699 0.651 1.46 0.952 2.284v0c0.994 2.52 1.751 4.628 2.27 6.325v0l4.285-6.009 0.786-0.132 3.291 2.347-8.08 11.33-3.545-2.528c-2.072-5.858-3.516-9.674-4.333-11.45-0.822-1.78-1.88-3.131-3.173-4.054z" fill="black"></path><path d="M257.74 175.629l3.594 1.236-0.664 1.931 10.231 3.519-1.463 4.25-0.715 0.35-9.698-3.337-2.548 7.407-0.716 0.349-14.214-4.921 1.246-3.623 0.715-0.349 10.281 2.941 1.109-3.223-10.617-3.695 1.269-3.689 0.716-0.35 10.277 2.951 0.481-1.398z" fill="black"></path></g></svg></g></svg></g></svg></g><g></g></svg></g><defs><mask></mask></defs></svg><rect width="279.72" height="279.72" fill="black" stroke="none" visibility="hidden"></rect></g></mask></svg><rect width="279.72" height="279.72" fill="black" stroke="none" visibility="hidden"></rect></g></mask><linearGradient x1="0.054" x2="0.941" y1="0.5" y2="0.5" id="88f7fc9e-8b57-458a-84f4-27463496ec53"><stop stop-color="#9c7945" offset="0"></stop><stop stop-color="#faf3aa" offset="0.498"></stop><stop stop-color="#9c7945" offset="1"></stop></linearGradient><rect width="279.72" height="279.72" fill="url(#88f7fc9e-8b57-458a-84f4-27463496ec53)" mask="url(#fd1e2157-4150-42e1-bbb8-e7a6cac299c6)" data-fill-palette-color="secondary"></rect><mask id="dc67f8a8-f3ec-41e5-8029-87bc42a5fcdd"><g id="SvgjsG6983"><svg viewBox="0 0 279.72 279.72" height="279.72" width="279.72"><g><svg viewBox="0 0 279.72 279.72" height="279.72" width="279.72"><g><svg viewBox="0 0 279.72 279.72" height="279.72" width="279.72"><g id="SvgjsG6982"><svg viewBox="0 0 279.72 279.72" height="279.72" width="279.72" id="SvgjsSvg6981"><g><svg viewBox="0 0 279.72 279.72" height="279.72" width="279.72"><g transform="matrix(1,0,0,1,73.92936372216631,95.17203142083359)"><svg viewBox="0 0 131.8612725556674 89.37593715833285" height="89.37593715833285" width="131.8612725556674"><g id="SvgjsG6980"><svg xmlns="http://www.w3.org/2000/svg" xmlns:xlink="http://www.w3.org/1999/xlink" version="1.1" x="0" y="0" viewBox="6.768000000000001 20.451 72.437 49.09799999999999" style="enable-background:new 0 0 90 90;" xml:space="preserve" height="89.37593715833285" width="131.8612725556674" class="icon-xg-0" data-fill-palette-color="accent" id="SvgjsSvg6979"><g fill="white"><path d="M76.559 20.451H31.47c-1.462 0-2.646 1.185-2.646 2.646v32.135h50.381V23.097C79.205 21.636 78.02 20.451 76.559 20.451zM76.329 53.026H31.702V23.518h44.627V53.026z" fill="white"></path><path d="M75.699 30.108c0 0-9.329 2.357-23.568 9.145C39.703 45.181 32.3 50.995 32.3 50.995v1.557h43.399V30.108z" fill="white"></path><path d="M78.88 55.696H28.392c-0.03 0-0.056 0.007-0.081 0.017L7.363 64.806c-0.419 0.182-0.595 0.357-0.595 0.826 0 0.034 0 3.491 0 3.491 0 0.276 0.298 0.426 0.695 0.426 1.046 0 43.411 0 45.158 0 1.751 0 4.364-0.484 5.838-1.138 1.331-0.591 17.089-7.455 20.132-8.782 0.328-0.142 0.507-0.516 0.503-0.919 0-0.84-0.005-2.812-0.012-2.848C79.063 55.765 78.979 55.696 78.88 55.696zM58.379 64.577c-1.394 0.619-3.976 1.121-5.758 1.121H7.607c-0.275 0-0.417-0.079-0.434-0.15C7.158 65.47 7.259 65.3 7.53 65.185l20.904-9.075h49.449C74.077 57.76 59.647 64.014 58.379 64.577z" fill="white"></path><polygon points="28.092,58.223 31.095,58.223 33.504,57.203 33.504,56.748 31.072,57.811 28.092,57.811  " fill="white"></polygon><polygon points="28.839,59.235 28.839,58.779 26.407,59.839 23.427,59.839 23.427,60.254 26.43,60.254  " fill="white"></polygon><polygon points="18.826,61.873 18.826,62.286 21.827,62.286 24.238,61.266 24.238,60.81 21.804,61.873  " fill="white"></polygon><polygon points="39.684,57.203 39.684,56.748 37.253,57.811 34.274,57.811 34.274,58.223 37.278,58.223  " fill="white"></polygon><polygon points="35.019,59.235 35.019,58.779 32.585,59.839 29.609,59.839 29.609,60.254 32.611,60.254  " fill="white"></polygon><polygon points="25.006,61.873 25.006,62.286 28.01,62.286 30.419,61.266 30.419,60.81 27.985,61.873  " fill="white"></polygon><polygon points="45.865,57.203 45.865,56.748 43.433,57.811 40.454,57.811 40.454,58.223 43.458,58.223  " fill="white"></polygon><polygon points="41.2,59.235 41.2,58.779 38.768,59.839 35.789,59.839 35.789,60.254 38.791,60.254  " fill="white"></polygon><polygon points="31.189,61.873 31.189,62.286 34.191,62.286 36.6,61.266 36.6,60.81 34.168,61.873  " fill="white"></polygon><polygon points="52.047,57.203 52.047,56.748 49.613,57.811 46.635,57.811 46.635,58.223 49.64,58.223  " fill="white"></polygon><polygon points="47.382,59.235 47.382,58.779 44.948,59.839 41.97,59.839 41.97,60.254 44.974,60.254  " fill="white"></polygon><polygon points="37.371,61.873 37.371,62.286 40.374,62.286 42.78,61.266 42.78,60.81 40.351,61.873  " fill="white"></polygon><polygon points="58.228,57.203 58.228,56.748 55.793,57.811 52.816,57.811 52.816,58.223 55.819,58.223  " fill="white"></polygon><polygon points="53.563,59.235 53.563,58.779 51.131,59.839 48.152,59.839 48.152,60.254 51.155,60.254  " fill="white"></polygon><polygon points="43.553,61.873 43.553,62.286 46.555,62.286 48.96,61.266 48.96,60.81 46.529,61.873  " fill="white"></polygon><polygon points="64.408,57.203 64.408,56.748 61.977,57.811 58.999,57.811 58.999,58.223 62,58.223  " fill="white"></polygon><polygon points="59.743,59.235 59.743,58.779 57.311,59.839 54.334,59.839 54.334,60.254 57.335,60.254  " fill="white"></polygon><polygon points="49.731,61.873 49.731,62.286 52.734,62.286 55.143,61.266 55.143,60.81 52.711,61.873  " fill="white"></polygon><polygon points="70.589,57.203 70.589,56.748 68.157,57.811 65.177,57.811 65.177,58.223 68.183,58.223  " fill="white"></polygon><polygon points="60.515,59.839 60.515,60.254 63.518,60.254 65.923,59.235 65.923,58.779 63.492,59.839  " fill="white"></polygon><polygon points="55.914,61.873 55.914,62.286 58.915,62.286 61.323,61.266 61.323,60.81 58.889,61.873  " fill="white"></polygon></g></svg></g></svg></g><g id="SvgjsG6978"></g><g id="SvgjsG6977"></g></svg></g></svg></g></svg></g><g></g></svg></g><defs><mask></mask></defs><mask><g id="SvgjsG6976"><svg viewBox="0 0 279.72 279.72" height="279.72" width="279.72"><g><svg viewBox="0 0 279.72 279.72" height="279.72" width="279.72"><g><svg viewBox="0 0 279.72 279.72" height="279.72" width="279.72"><g id="SvgjsG6975"><svg viewBox="0 0 279.72 279.72" height="279.72" width="279.72" id="SvgjsSvg6974"><g><svg viewBox="0 0 279.72 279.72" height="279.72" width="279.72"><g transform="matrix(1,0,0,1,73.92936372216631,95.17203142083359)"><svg viewBox="0 0 131.8612725556674 89.37593715833285" height="89.37593715833285" width="131.8612725556674"><g id="SvgjsG6973"><svg xmlns="http://www.w3.org/2000/svg" xmlns:xlink="http://www.w3.org/1999/xlink" version="1.1" x="0" y="0" viewBox="6.768000000000001 20.451 72.437 49.09799999999999" style="enable-background:new 0 0 90 90;" xml:space="preserve" height="89.37593715833285" width="131.8612725556674" class="icon-xg-0" data-fill-palette-color="accent" id="SvgjsSvg6972"><g fill="black"><path d="M76.559 20.451H31.47c-1.462 0-2.646 1.185-2.646 2.646v32.135h50.381V23.097C79.205 21.636 78.02 20.451 76.559 20.451zM76.329 53.026H31.702V23.518h44.627V53.026z" fill="black"></path><path d="M75.699 30.108c0 0-9.329 2.357-23.568 9.145C39.703 45.181 32.3 50.995 32.3 50.995v1.557h43.399V30.108z" fill="black"></path><path d="M78.88 55.696H28.392c-0.03 0-0.056 0.007-0.081 0.017L7.363 64.806c-0.419 0.182-0.595 0.357-0.595 0.826 0 0.034 0 3.491 0 3.491 0 0.276 0.298 0.426 0.695 0.426 1.046 0 43.411 0 45.158 0 1.751 0 4.364-0.484 5.838-1.138 1.331-0.591 17.089-7.455 20.132-8.782 0.328-0.142 0.507-0.516 0.503-0.919 0-0.84-0.005-2.812-0.012-2.848C79.063 55.765 78.979 55.696 78.88 55.696zM58.379 64.577c-1.394 0.619-3.976 1.121-5.758 1.121H7.607c-0.275 0-0.417-0.079-0.434-0.15C7.158 65.47 7.259 65.3 7.53 65.185l20.904-9.075h49.449C74.077 57.76 59.647 64.014 58.379 64.577z" fill="black"></path><polygon points="28.092,58.223 31.095,58.223 33.504,57.203 33.504,56.748 31.072,57.811 28.092,57.811  " fill="black"></polygon><polygon points="28.839,59.235 28.839,58.779 26.407,59.839 23.427,59.839 23.427,60.254 26.43,60.254  " fill="black"></polygon><polygon points="18.826,61.873 18.826,62.286 21.827,62.286 24.238,61.266 24.238,60.81 21.804,61.873  " fill="black"></polygon><polygon points="39.684,57.203 39.684,56.748 37.253,57.811 34.274,57.811 34.274,58.223 37.278,58.223  " fill="black"></polygon><polygon points="35.019,59.235 35.019,58.779 32.585,59.839 29.609,59.839 29.609,60.254 32.611,60.254  " fill="black"></polygon><polygon points="25.006,61.873 25.006,62.286 28.01,62.286 30.419,61.266 30.419,60.81 27.985,61.873  " fill="black"></polygon><polygon points="45.865,57.203 45.865,56.748 43.433,57.811 40.454,57.811 40.454,58.223 43.458,58.223  " fill="black"></polygon><polygon points="41.2,59.235 41.2,58.779 38.768,59.839 35.789,59.839 35.789,60.254 38.791,60.254  " fill="black"></polygon><polygon points="31.189,61.873 31.189,62.286 34.191,62.286 36.6,61.266 36.6,60.81 34.168,61.873  " fill="black"></polygon><polygon points="52.047,57.203 52.047,56.748 49.613,57.811 46.635,57.811 46.635,58.223 49.64,58.223  " fill="black"></polygon><polygon points="47.382,59.235 47.382,58.779 44.948,59.839 41.97,59.839 41.97,60.254 44.974,60.254  " fill="black"></polygon><polygon points="37.371,61.873 37.371,62.286 40.374,62.286 42.78,61.266 42.78,60.81 40.351,61.873  " fill="black"></polygon><polygon points="58.228,57.203 58.228,56.748 55.793,57.811 52.816,57.811 52.816,58.223 55.819,58.223  " fill="black"></polygon><polygon points="53.563,59.235 53.563,58.779 51.131,59.839 48.152,59.839 48.152,60.254 51.155,60.254  " fill="black"></polygon><polygon points="43.553,61.873 43.553,62.286 46.555,62.286 48.96,61.266 48.96,60.81 46.529,61.873  " fill="black"></polygon><polygon points="64.408,57.203 64.408,56.748 61.977,57.811 58.999,57.811 58.999,58.223 62,58.223  " fill="black"></polygon><polygon points="59.743,59.235 59.743,58.779 57.311,59.839 54.334,59.839 54.334,60.254 57.335,60.254  " fill="black"></polygon><polygon points="49.731,61.873 49.731,62.286 52.734,62.286 55.143,61.266 55.143,60.81 52.711,61.873  " fill="black"></polygon><polygon points="70.589,57.203 70.589,56.748 68.157,57.811 65.177,57.811 65.177,58.223 68.183,58.223  " fill="black"></polygon><polygon points="60.515,59.839 60.515,60.254 63.518,60.254 65.923,59.235 65.923,58.779 63.492,59.839  " fill="black"></polygon><polygon points="55.914,61.873 55.914,62.286 58.915,62.286 61.323,61.266 61.323,60.81 58.889,61.873  " fill="black"></polygon></g></svg></g></svg></g><g id="SvgjsG6971"><path d="M31.169 99.413v0l-15.416-5.259 3.358 3.611-1.169 3.426-4.752 0.694 15.321 5.227c0.406 0.139 0.671 0.243 0.796 0.314v0c0.287 0.197 0.295 0.692 0.025 1.485v0c-0.77 2.259-1.574 3.245-2.412 2.96v0l-24.077-8.214c-0.856-0.292-1.019-1.219-0.486-2.779 0.532-1.561 1.271-2.357 2.217-2.388v0l9.924-0.44-7.566-6.597c-0.432-0.353-0.683-0.686-0.753-1-0.07-0.314 0.007-0.798 0.229-1.452v0c0.556-1.631 1.28-2.308 2.17-2.032v0l10.302 2.908 13.684 4.668c0.679 0.232 1.076 0.438 1.192 0.619 0.117 0.175 0.058 0.608-0.178 1.3-0.236 0.692-0.45 1.245-0.641 1.661-0.189 0.41-0.443 0.759-0.761 1.047-0.309 0.284-0.645 0.364-1.007 0.241z" fill="black"></path><path d="M51.211 66.261v0l-16.413-14.53-2.972 3.358c-0.397 0.418-0.759 0.595-1.086 0.529v0c-0.393-0.062-0.913-0.379-1.561-0.952v0c-1.019-0.902-1.26-1.657-0.722-2.264v0l8.658-9.78c0.92-1.039 1.658-1.312 2.215-0.819v0c1.591 1.409 2.007 2.542 1.247 3.401v0l-2.689 2.991 5.664 4.585 10.959 9.647c0.341 0.302 0.556 0.51 0.643 0.623v0c0.189 0.292 0.005 0.752-0.55 1.38v0c-1.6 1.807-2.731 2.417-3.393 1.831z" fill="black"></path><path d="M114.111 26.059c-0.6-0.531-0.926-0.955-0.98-1.272-0.055-0.324 0.149-0.807 0.612-1.45 0.461-0.649 0.777-1.012 0.948-1.088 0.17-0.083 0.337-0.139 0.502-0.167 0.159-0.027 0.448 0.036 0.868 0.19v0c1.976 1.073 3.622 1.499 4.937 1.277 1.322-0.223 2.133-0.677 2.432-1.36 0.299-0.683 0.365-1.52 0.198-2.511-0.168-0.991-0.66-1.731-1.476-2.218-0.811-0.495-2.097-1.043-3.857-1.643-1.76-0.6-3.36-1.496-4.799-2.687-1.438-1.185-2.282-2.521-2.533-4.008v0c-0.447-2.644-0.085-4.687 1.085-6.128 1.176-1.45 3.096-2.4 5.759-2.85v0c1.633-0.276 3.291-0.155 4.977 0.362v0c0.882 0.191 1.33 0.465 1.342 0.824v0c-0.003 0.143 0.01 0.359 0.038 0.646v0c-0.234 1.352-0.454 2.143-0.659 2.375v0c-0.065 0.059-0.22 0.108-0.464 0.15-0.251 0.042-0.938-0.042-2.062-0.253-1.13-0.21-2.065-0.253-2.805-0.128-0.74 0.125-1.315 0.487-1.724 1.087-0.407 0.606-0.531 1.381-0.371 2.327 0.159 0.939 0.726 1.72 1.701 2.343 0.982 0.623 2.426 1.198 4.33 1.726v0c2.027 0.65 3.594 1.415 4.702 2.295 1.107 0.88 1.808 2.193 2.103 3.938v0c0.981 5.803-0.981 9.119-5.885 9.948v0c-3.655 0.618-6.628 0.043-8.919-1.725z" fill="black"></path><path d="M161.298 24.634l2.353-11.783-2.82-0.563c-0.276-0.055-0.421-0.152-0.434-0.292-0.008-0.131 0.005-0.279 0.037-0.444v0c0.202-1.012 0.485-1.52 0.848-1.522v0l2.932 0.001 2.766-3.58c0.346-0.293 0.919-0.36 1.721-0.2v0c0.21 0.042 0.324 0.502 0.34 1.38 0.021 0.886 0.007 2.004-0.045 3.355v0l3.383 0.675c0.375 0.075 0.468 0.582 0.28 1.522-0.188 0.94-0.469 1.373-0.843 1.298v0l-3.422-0.683-2.233 11.182-0.223 4.097-0.006 0.03c-0.008 0.142-0.027 0.237-0.057 0.286v0c-0.155 0.16-0.762 0.135-1.82-0.077v0c-1.052-0.21-1.641-0.546-1.768-1.009v0z" fill="black"></path><path d="M199.719 31.463v0c1.329-2.243 2.532-3.825 3.608-4.746 1.072-0.915 2.156-1.337 3.25-1.265 1.091 0.078 2.462 0.606 4.112 1.583 1.644 0.974 2.762 1.921 3.354 2.841 0.595 0.929 0.745 2.082 0.451 3.459-0.291 1.386-1.102 3.2-2.431 5.443v0c-1.828 3.085-3.537 4.963-5.127 5.634-1.595 0.667-3.564 0.307-5.905-1.08-2.347-1.391-3.611-2.946-3.792-4.666-0.175-1.717 0.652-4.118 2.48-7.203zM203.915 33.949v0c-2.047 3.454-2.742 5.376-2.085 5.766v0c0.905 0.537 1.66 0.789 2.263 0.757v0c0.326-0.025 0.658-0.229 0.995-0.614v0c0.674-0.769 1.517-2.007 2.529-3.715v0c2.023-3.414 2.706-5.316 2.049-5.705v0c-1.234-0.731-2.163-0.9-2.787-0.506-0.623 0.394-1.612 1.733-2.964 4.017z" fill="black"></path><path d="M245.032 57.67l-0.615 1.415c2.277 0.686 3.613 1.274 4.009 1.764 0.4 0.495 0.666 1.017 0.798 1.565 0.137 0.553 0.189 0.997 0.159 1.333v0l-0.048 0.452c-1.422 0.683-2.34 1.071-2.756 1.165-0.419 0.089-0.73 0.008-0.932-0.242-0.202-0.25-0.359-0.653-0.472-1.209-0.107-0.56-0.289-0.998-0.546-1.316-0.253-0.313-1.052-0.71-2.397-1.192v0l-10.272 8.294c-0.11 0.088-0.2 0.131-0.271 0.128v0c-0.209 0.04-0.56-0.246-1.053-0.856-0.497-0.615-0.913-1.227-1.249-1.834-0.331-0.603-0.442-0.948-0.333-1.037v0l13.847-11.181c0.297-0.24 0.783 0.057 1.457 0.892 0.678 0.84 0.921 1.445 0.729 1.815v0z" fill="black"></path><path d="M251.005 106.108v0c-0.831-2.422-0.751-4.328 0.239-5.717 0.991-1.389 3.182-2.665 6.575-3.828v0c2.441-0.837 4.376-1.26 5.804-1.269 1.422-0.006 2.517 0.345 3.285 1.053 0.761 0.71 1.433 1.914 2.015 3.613 0.581 1.693 0.783 3.058 0.609 4.097-0.178 1.032-0.84 1.971-1.989 2.819-1.152 0.856-2.914 1.691-5.285 2.504v0c-0.139 0.048-0.276 0.095-0.409 0.14-0.139 0.048-0.358-0.175-0.654-0.668-0.291-0.496-0.564-1.118-0.821-1.866v0l-1.791-5.221c-2.635 0.954-4.076 1.66-4.322 2.12v0c-0.106 0.27-0.081 0.63 0.073 1.081v0c1.016 2.961 1.857 4.937 2.522 5.927v0c0.041 0.036 0.064 0.063 0.071 0.082v0c0.099 0.143 0.051 0.305-0.142 0.485-0.193 0.18-0.709 0.413-1.546 0.7-0.837 0.287-1.362 0.265-1.574-0.066v0c-0.679-0.802-1.566-2.797-2.66-5.986zM263.937 99.928v0l-2.644 0.907 1.175 3.424c2.595-0.989 3.818-1.7 3.67-2.131v0c-0.263-0.767-0.595-1.362-0.995-1.785-0.392-0.418-0.793-0.557-1.206-0.415z" fill="black"></path><path d="M3.482 143.5c0-5.812 4.712-10.524 10.525-10.525 5.812 0 10.524 4.712 10.524 10.525 0 5.812-4.712 10.524-10.524 10.524-5.812 0-10.524-4.712-10.525-10.524z" fill="black"></path><path d="M256.62 143.5c0-5.812 4.712-10.524 10.525-10.525 5.812 0 10.524 4.712 10.524 10.525 0 5.812-4.712 10.524-10.524 10.524-5.812 0-10.524-4.712-10.525-10.524z" fill="black"></path></g><g id="SvgjsG6970"><path d="M12.312 180.135c0.422-0.663 0.782-1.045 1.081-1.145 0.299-0.1 0.796 0.025 1.491 0.373 0.704 0.352 1.105 0.603 1.205 0.754 0.1 0.151 0.176 0.305 0.229 0.464 0.051 0.153 0.034 0.441-0.051 0.865v0c-0.742 2.077-0.907 3.736-0.494 4.976 0.415 1.247 0.975 1.961 1.678 2.143 0.706 0.189 1.526 0.128 2.461-0.183 0.935-0.311 1.581-0.897 1.937-1.758 0.35-0.858 0.685-2.185 1.006-3.981 0.312-1.8 0.935-3.484 1.868-5.052 0.933-1.568 2.102-2.587 3.508-3.055v0c2.487-0.828 4.519-0.784 6.095 0.132 1.579 0.923 2.787 2.64 3.623 5.153v0c0.51 1.533 0.644 3.152 0.4 4.858v0c-0.051 0.886-0.253 1.363-0.605 1.431v0c-0.142 0.019-0.35 0.064-0.623 0.133v0c-1.338-0.028-2.132-0.124-2.385-0.287v0c-0.066-0.049-0.138-0.191-0.216-0.426-0.076-0.229-0.1-0.906-0.072-2.032 0.036-1.121-0.062-2.032-0.295-2.731-0.233-0.7-0.673-1.203-1.32-1.511-0.644-0.301-1.409-0.305-2.292-0.01-0.89 0.297-1.565 0.966-2.023 2.009-0.452 1.041-0.791 2.524-1.019 4.451v0c-0.325 2.058-0.831 3.689-1.518 4.894-0.687 1.204-1.851 2.079-3.492 2.625v0c-5.47 1.822-8.974 0.42-10.514-4.203v0c-1.148-3.447-1.036-6.409 0.337-8.887z" fill="black"></path><path d="M29.766 215.149v0l0.704 1.053 14.93-9.98-0.587-0.878c-0.244-0.401-0.294-0.747-0.149-1.037v0c0.18-0.322 0.629-0.723 1.348-1.204v0c1.092-0.73 1.855-0.772 2.287-0.125v0l3.453 5.166c0.574 0.858 0.56 1.489-0.042 1.891v0c-1.733 1.159-2.827 1.398-3.282 0.718v0l-0.491-0.736-5.648 4.199-9.064 6.107 0.587 0.878c0.432 0.695 0.347 1.243-0.255 1.646v0c-1.759 1.12-2.944 1.222-3.555 0.308v0l-3.694-5.525c-0.218-0.362-0.255-0.689-0.11-0.979v0c0.18-0.322 0.641-0.731 1.382-1.226v0c1.092-0.73 1.821-0.822 2.186-0.276z" fill="black"></path><path d="M47.355 241.799v0l16.297-18.755c0.567-0.653 1.488-0.425 2.763 0.683v0c0.263 0.229 0.464 0.416 0.603 0.563 0.134 0.152 0.249 0.403 0.345 0.753 0.105 0.349 0.123 0.742 0.054 1.179v0l-4.938 15.264 9.496-11.25c0.554-0.638 1.469-0.402 2.744 0.706v0c0.531 0.462 0.84 0.837 0.927 1.125 0.087 0.298-0.031 0.648-0.354 1.051v0l-6.513 8.354-9.451 10.877c-0.259 0.299-0.445 0.492-0.558 0.581v0c-0.286 0.186-0.738 0.011-1.356-0.526v0c-1.149-0.998-1.553-1.922-1.213-2.773v0l4.34-15.557-9.513 11.009c-0.277 0.319-0.472 0.522-0.584 0.612v0c-0.286 0.186-0.738 0.011-1.356-0.525v0c-1.771-1.539-2.349-2.663-1.733-3.371z" fill="black"></path><path d="M94.339 267.599v0c0.533 0.236 0.649 0.695 0.347 1.374-0.304 0.686-0.542 1.197-0.712 1.533v0c-0.428 0.734-0.965 1.02-1.612 0.858v0c-2.031-0.563-3.509-1.049-4.434-1.46v0c-3.187-1.412-4.981-3.286-5.384-5.62-0.405-2.328 0.432-5.839 2.513-10.533v0c1.518-3.426 2.942-5.926 4.27-7.5 1.328-1.574 2.736-2.468 4.224-2.681 1.494-0.21 3.402 0.199 5.725 1.228 2.323 1.029 3.859 2.147 4.607 3.351v0c0.149 0.242 0.176 0.47 0.082 0.685-0.095 0.214-0.377 0.57-0.847 1.066-0.463 0.499-0.842 0.833-1.137 1.003-0.286 0.166-0.528 0.206-0.724 0.119-0.19-0.084-0.335-0.163-0.434-0.237v0c-1.464-1.03-2.779-1.804-3.943-2.319-1.171-0.519-2.214-0.215-3.131 0.911-0.926 1.129-2.027 3.134-3.304 6.014-1.277 2.88-2.094 4.923-2.452 6.128-0.349 1.202-0.421 2.116-0.215 2.743 0.21 0.635 0.759 1.15 1.647 1.544 0.889 0.394 1.918 0.784 3.089 1.171 1.174 0.396 1.782 0.603 1.825 0.622z" fill="black"></path><path d="M124.128 262.8l6.718 0.888c0.93 0.123 1.34 0.603 1.23 1.441v0c-0.15 1.136-0.323 1.905-0.518 2.305-0.195 0.4-0.581 0.562-1.16 0.485v0l-6.828-0.903-0.981 7.417 8.045 1.064c0.555 0.1 0.922 0.261 1.103 0.48 0.186 0.227 0.254 0.537 0.201 0.929v0c-0.151 1.143-0.361 1.913-0.63 2.311-0.263 0.405-0.71 0.565-1.341 0.482v0l-12.261-1.622-0.485-0.632 3.391-25.638 12.37 1.636c0.994 0.152 1.443 0.59 1.348 1.314v0c-0.103 0.622-0.201 1.109-0.295 1.462-0.094 0.353-0.287 0.689-0.58 1.009-0.292 0.313-0.67 0.439-1.135 0.377v0l-7.765-1.027z" fill="black"></path><path d="M185.565 251.441v0l-0.487-1.322c-0.162-0.412-0.304-0.644-0.426-0.697-0.122-0.053-0.262-0.088-0.419-0.105v0c-0.26-0.02-0.612 0.057-1.055 0.231-0.449 0.177-0.804 0.32-1.063 0.429-0.257 0.115-0.464 0.211-0.621 0.287-0.157 0.076-0.314 0.163-0.471 0.261-0.15 0.095-0.251 0.167-0.303 0.217v0c-0.289 0.236-0.512 0.41-0.67 0.522v0l-1.6 0.629-2.216-2.942c0.88-1.225 2.53-2.313 4.951-3.265v0c1.503-0.591 2.732-0.955 3.686-1.093 0.954-0.138 1.766 0.004 2.436 0.425 0.661 0.417 1.194 0.957 1.598 1.619 0.396 0.658 0.728 1.331 0.999 2.017 0.27 0.686 0.476 1.192 0.618 1.518 0.134 0.322 0.217 0.534 0.25 0.637 0.027 0.105 0.088 0.343 0.185 0.716 0.099 0.379 0.156 0.699 0.171 0.959 0.007 0.256 0.022 0.651 0.044 1.182 0.024 0.538 0.002 1.058-0.067 1.561-0.063 0.5-0.144 1.137-0.243 1.91-0.102 0.767-0.251 1.579-0.448 2.434v0c-0.541 2.654-1.056 4.834-1.545 6.539v0l6.868-2.7 0.73 0.318 1.479 3.762-12.951 5.091-1.593-4.051c1.457-6.04 2.328-10.027 2.612-11.961 0.282-1.94 0.132-3.65-0.449-5.128z" fill="black"></path><path d="M206.628 231.673v0c0.5-0.688 1.241-1.417 2.224-2.184v0c1.643-1.284 3.103-1.979 4.381-2.085 1.284-0.11 2.705 0.43 4.264 1.619 1.554 1.193 3.476 3.256 5.768 6.187v0c3.162 4.046 4.909 7.185 5.242 9.417 0.337 2.238-0.672 4.278-3.028 6.119-2.35 1.837-4.576 2.326-6.677 1.467-2.097-0.854-4.602-3.145-7.517-6.875-2.914-3.729-4.711-6.561-5.391-8.497-0.68-1.936-0.435-3.659 0.734-5.168zM211.695 237.323c0.37 0.647 0.773 1.267 1.212 1.86 0.433 0.597 1.213 1.617 2.339 3.059 1.123 1.437 2.102 2.602 2.938 3.498 0.836 0.895 1.444 1.445 1.825 1.649 0.385 0.21 0.696 0.221 0.934 0.036v0c0.613-0.479 1.068-0.86 1.365-1.143 0.302-0.278 0.537-0.624 0.708-1.038 0.165-0.41 0.221-0.773 0.169-1.09-0.052-0.317-0.25-0.788-0.593-1.412v0c-0.475-0.88-1.476-2.296-3.003-4.251-1.531-1.959-2.713-3.384-3.545-4.274-0.836-0.895-1.454-1.446-1.853-1.652-0.4-0.207-0.729-0.209-0.988-0.007v0c-0.586 0.458-1.037 0.84-1.351 1.145-0.314 0.305-0.54 0.664-0.676 1.078-0.132 0.418-0.173 0.786-0.121 1.102 0.057 0.313 0.271 0.792 0.64 1.44z" fill="black"></path><path d="M236.72 209.572v0l-1.128-0.842c-0.36-0.257-0.606-0.374-0.737-0.353-0.131 0.022-0.267 0.069-0.409 0.141v0c-0.229 0.125-0.482 0.381-0.758 0.768-0.28 0.393-0.499 0.706-0.657 0.939-0.153 0.237-0.274 0.43-0.365 0.58-0.09 0.15-0.174 0.308-0.252 0.475-0.074 0.161-0.119 0.277-0.136 0.348v0c-0.113 0.355-0.206 0.623-0.277 0.803v0l-0.998 1.4-3.462-1.259c0.07-1.506 0.86-3.318 2.37-5.436v0c0.938-1.315 1.769-2.291 2.494-2.926 0.725-0.636 1.483-0.96 2.274-0.972 0.782-0.011 1.522 0.151 2.223 0.485 0.691 0.336 1.336 0.718 1.936 1.147 0.6 0.428 1.049 0.74 1.346 0.935 0.288 0.197 0.473 0.329 0.557 0.397 0.08 0.073 0.261 0.24 0.545 0.5 0.289 0.264 0.512 0.501 0.667 0.71 0.146 0.211 0.373 0.533 0.681 0.967 0.314 0.438 0.579 0.886 0.795 1.345 0.22 0.453 0.5 1.031 0.838 1.734 0.333 0.699 0.651 1.46 0.952 2.284v0c0.994 2.52 1.751 4.628 2.27 6.325v0l4.285-6.009 0.786-0.132 3.291 2.347-8.08 11.33-3.545-2.528c-2.072-5.858-3.516-9.674-4.333-11.45-0.822-1.78-1.88-3.131-3.173-4.054z" fill="black"></path><path d="M257.74 175.629l3.594 1.236-0.664 1.931 10.231 3.519-1.463 4.25-0.715 0.35-9.698-3.337-2.548 7.407-0.716 0.349-14.214-4.921 1.246-3.623 0.715-0.349 10.281 2.941 1.109-3.223-10.617-3.695 1.269-3.689 0.716-0.35 10.277 2.951 0.481-1.398z" fill="black"></path></g></svg></g></svg></g></svg></g><g></g></svg></g><defs><mask></mask></defs></svg><rect width="279.72" height="279.72" fill="black" stroke="none" visibility="hidden"></rect></g></mask><mask><g id="SvgjsG6969"><svg viewBox="0 0 279.72 279.72" height="279.72" width="279.72"><g><svg viewBox="0 0 279.72 279.72" height="279.72" width="279.72"><g><svg viewBox="0 0 279.72 279.72" height="279.72" width="279.72"><g id="SvgjsG6968"><svg viewBox="0 0 279.72 279.72" height="279.72" width="279.72" id="SvgjsSvg6967"><g><svg viewBox="0 0 279.72 279.72" height="279.72" width="279.72"><g transform="matrix(1,0,0,1,73.92936372216631,95.17203142083359)"><svg viewBox="0 0 131.8612725556674 89.37593715833285" height="89.37593715833285" width="131.8612725556674"><g id="SvgjsG6966"><svg xmlns="http://www.w3.org/2000/svg" xmlns:xlink="http://www.w3.org/1999/xlink" version="1.1" x="0" y="0" viewBox="6.768000000000001 20.451 72.437 49.09799999999999" style="enable-background:new 0 0 90 90;" xml:space="preserve" height="89.37593715833285" width="131.8612725556674" class="icon-xg-0" data-fill-palette-color="accent" id="SvgjsSvg6965"><g fill="black"><path d="M76.559 20.451H31.47c-1.462 0-2.646 1.185-2.646 2.646v32.135h50.381V23.097C79.205 21.636 78.02 20.451 76.559 20.451zM76.329 53.026H31.702V23.518h44.627V53.026z" fill="black"></path><path d="M75.699 30.108c0 0-9.329 2.357-23.568 9.145C39.703 45.181 32.3 50.995 32.3 50.995v1.557h43.399V30.108z" fill="black"></path><path d="M78.88 55.696H28.392c-0.03 0-0.056 0.007-0.081 0.017L7.363 64.806c-0.419 0.182-0.595 0.357-0.595 0.826 0 0.034 0 3.491 0 3.491 0 0.276 0.298 0.426 0.695 0.426 1.046 0 43.411 0 45.158 0 1.751 0 4.364-0.484 5.838-1.138 1.331-0.591 17.089-7.455 20.132-8.782 0.328-0.142 0.507-0.516 0.503-0.919 0-0.84-0.005-2.812-0.012-2.848C79.063 55.765 78.979 55.696 78.88 55.696zM58.379 64.577c-1.394 0.619-3.976 1.121-5.758 1.121H7.607c-0.275 0-0.417-0.079-0.434-0.15C7.158 65.47 7.259 65.3 7.53 65.185l20.904-9.075h49.449C74.077 57.76 59.647 64.014 58.379 64.577z" fill="black"></path><polygon points="28.092,58.223 31.095,58.223 33.504,57.203 33.504,56.748 31.072,57.811 28.092,57.811  " fill="black"></polygon><polygon points="28.839,59.235 28.839,58.779 26.407,59.839 23.427,59.839 23.427,60.254 26.43,60.254  " fill="black"></polygon><polygon points="18.826,61.873 18.826,62.286 21.827,62.286 24.238,61.266 24.238,60.81 21.804,61.873  " fill="black"></polygon><polygon points="39.684,57.203 39.684,56.748 37.253,57.811 34.274,57.811 34.274,58.223 37.278,58.223  " fill="black"></polygon><polygon points="35.019,59.235 35.019,58.779 32.585,59.839 29.609,59.839 29.609,60.254 32.611,60.254  " fill="black"></polygon><polygon points="25.006,61.873 25.006,62.286 28.01,62.286 30.419,61.266 30.419,60.81 27.985,61.873  " fill="black"></polygon><polygon points="45.865,57.203 45.865,56.748 43.433,57.811 40.454,57.811 40.454,58.223 43.458,58.223  " fill="black"></polygon><polygon points="41.2,59.235 41.2,58.779 38.768,59.839 35.789,59.839 35.789,60.254 38.791,60.254  " fill="black"></polygon><polygon points="31.189,61.873 31.189,62.286 34.191,62.286 36.6,61.266 36.6,60.81 34.168,61.873  " fill="black"></polygon><polygon points="52.047,57.203 52.047,56.748 49.613,57.811 46.635,57.811 46.635,58.223 49.64,58.223  " fill="black"></polygon><polygon points="47.382,59.235 47.382,58.779 44.948,59.839 41.97,59.839 41.97,60.254 44.974,60.254  " fill="black"></polygon><polygon points="37.371,61.873 37.371,62.286 40.374,62.286 42.78,61.266 42.78,60.81 40.351,61.873  " fill="black"></polygon><polygon points="58.228,57.203 58.228,56.748 55.793,57.811 52.816,57.811 52.816,58.223 55.819,58.223  " fill="black"></polygon><polygon points="53.563,59.235 53.563,58.779 51.131,59.839 48.152,59.839 48.152,60.254 51.155,60.254  " fill="black"></polygon><polygon points="43.553,61.873 43.553,62.286 46.555,62.286 48.96,61.266 48.96,60.81 46.529,61.873  " fill="black"></polygon><polygon points="64.408,57.203 64.408,56.748 61.977,57.811 58.999,57.811 58.999,58.223 62,58.223  " fill="black"></polygon><polygon points="59.743,59.235 59.743,58.779 57.311,59.839 54.334,59.839 54.334,60.254 57.335,60.254  " fill="black"></polygon><polygon points="49.731,61.873 49.731,62.286 52.734,62.286 55.143,61.266 55.143,60.81 52.711,61.873  " fill="black"></polygon><polygon points="70.589,57.203 70.589,56.748 68.157,57.811 65.177,57.811 65.177,58.223 68.183,58.223  " fill="black"></polygon><polygon points="60.515,59.839 60.515,60.254 63.518,60.254 65.923,59.235 65.923,58.779 63.492,59.839  " fill="black"></polygon><polygon points="55.914,61.873 55.914,62.286 58.915,62.286 61.323,61.266 61.323,60.81 58.889,61.873  " fill="black"></polygon></g></svg></g></svg></g><g id="SvgjsG6964"></g><g id="SvgjsG6963"><path d="M12.312 180.135c0.422-0.663 0.782-1.045 1.081-1.145 0.299-0.1 0.796 0.025 1.491 0.373 0.704 0.352 1.105 0.603 1.205 0.754 0.1 0.151 0.176 0.305 0.229 0.464 0.051 0.153 0.034 0.441-0.051 0.865v0c-0.742 2.077-0.907 3.736-0.494 4.976 0.415 1.247 0.975 1.961 1.678 2.143 0.706 0.189 1.526 0.128 2.461-0.183 0.935-0.311 1.581-0.897 1.937-1.758 0.35-0.858 0.685-2.185 1.006-3.981 0.312-1.8 0.935-3.484 1.868-5.052 0.933-1.568 2.102-2.587 3.508-3.055v0c2.487-0.828 4.519-0.784 6.095 0.132 1.579 0.923 2.787 2.64 3.623 5.153v0c0.51 1.533 0.644 3.152 0.4 4.858v0c-0.051 0.886-0.253 1.363-0.605 1.431v0c-0.142 0.019-0.35 0.064-0.623 0.133v0c-1.338-0.028-2.132-0.124-2.385-0.287v0c-0.066-0.049-0.138-0.191-0.216-0.426-0.076-0.229-0.1-0.906-0.072-2.032 0.036-1.121-0.062-2.032-0.295-2.731-0.233-0.7-0.673-1.203-1.32-1.511-0.644-0.301-1.409-0.305-2.292-0.01-0.89 0.297-1.565 0.966-2.023 2.009-0.452 1.041-0.791 2.524-1.019 4.451v0c-0.325 2.058-0.831 3.689-1.518 4.894-0.687 1.204-1.851 2.079-3.492 2.625v0c-5.47 1.822-8.974 0.42-10.514-4.203v0c-1.148-3.447-1.036-6.409 0.337-8.887z" fill="black"></path><path d="M29.766 215.149v0l0.704 1.053 14.93-9.98-0.587-0.878c-0.244-0.401-0.294-0.747-0.149-1.037v0c0.18-0.322 0.629-0.723 1.348-1.204v0c1.092-0.73 1.855-0.772 2.287-0.125v0l3.453 5.166c0.574 0.858 0.56 1.489-0.042 1.891v0c-1.733 1.159-2.827 1.398-3.282 0.718v0l-0.491-0.736-5.648 4.199-9.064 6.107 0.587 0.878c0.432 0.695 0.347 1.243-0.255 1.646v0c-1.759 1.12-2.944 1.222-3.555 0.308v0l-3.694-5.525c-0.218-0.362-0.255-0.689-0.11-0.979v0c0.18-0.322 0.641-0.731 1.382-1.226v0c1.092-0.73 1.821-0.822 2.186-0.276z" fill="black"></path><path d="M47.355 241.799v0l16.297-18.755c0.567-0.653 1.488-0.425 2.763 0.683v0c0.263 0.229 0.464 0.416 0.603 0.563 0.134 0.152 0.249 0.403 0.345 0.753 0.105 0.349 0.123 0.742 0.054 1.179v0l-4.938 15.264 9.496-11.25c0.554-0.638 1.469-0.402 2.744 0.706v0c0.531 0.462 0.84 0.837 0.927 1.125 0.087 0.298-0.031 0.648-0.354 1.051v0l-6.513 8.354-9.451 10.877c-0.259 0.299-0.445 0.492-0.558 0.581v0c-0.286 0.186-0.738 0.011-1.356-0.526v0c-1.149-0.998-1.553-1.922-1.213-2.773v0l4.34-15.557-9.513 11.009c-0.277 0.319-0.472 0.522-0.584 0.612v0c-0.286 0.186-0.738 0.011-1.356-0.525v0c-1.771-1.539-2.349-2.663-1.733-3.371z" fill="black"></path><path d="M94.339 267.599v0c0.533 0.236 0.649 0.695 0.347 1.374-0.304 0.686-0.542 1.197-0.712 1.533v0c-0.428 0.734-0.965 1.02-1.612 0.858v0c-2.031-0.563-3.509-1.049-4.434-1.46v0c-3.187-1.412-4.981-3.286-5.384-5.62-0.405-2.328 0.432-5.839 2.513-10.533v0c1.518-3.426 2.942-5.926 4.27-7.5 1.328-1.574 2.736-2.468 4.224-2.681 1.494-0.21 3.402 0.199 5.725 1.228 2.323 1.029 3.859 2.147 4.607 3.351v0c0.149 0.242 0.176 0.47 0.082 0.685-0.095 0.214-0.377 0.57-0.847 1.066-0.463 0.499-0.842 0.833-1.137 1.003-0.286 0.166-0.528 0.206-0.724 0.119-0.19-0.084-0.335-0.163-0.434-0.237v0c-1.464-1.03-2.779-1.804-3.943-2.319-1.171-0.519-2.214-0.215-3.131 0.911-0.926 1.129-2.027 3.134-3.304 6.014-1.277 2.88-2.094 4.923-2.452 6.128-0.349 1.202-0.421 2.116-0.215 2.743 0.21 0.635 0.759 1.15 1.647 1.544 0.889 0.394 1.918 0.784 3.089 1.171 1.174 0.396 1.782 0.603 1.825 0.622z" fill="black"></path><path d="M124.128 262.8l6.718 0.888c0.93 0.123 1.34 0.603 1.23 1.441v0c-0.15 1.136-0.323 1.905-0.518 2.305-0.195 0.4-0.581 0.562-1.16 0.485v0l-6.828-0.903-0.981 7.417 8.045 1.064c0.555 0.1 0.922 0.261 1.103 0.48 0.186 0.227 0.254 0.537 0.201 0.929v0c-0.151 1.143-0.361 1.913-0.63 2.311-0.263 0.405-0.71 0.565-1.341 0.482v0l-12.261-1.622-0.485-0.632 3.391-25.638 12.37 1.636c0.994 0.152 1.443 0.59 1.348 1.314v0c-0.103 0.622-0.201 1.109-0.295 1.462-0.094 0.353-0.287 0.689-0.58 1.009-0.292 0.313-0.67 0.439-1.135 0.377v0l-7.765-1.027z" fill="black"></path><path d="M185.565 251.441v0l-0.487-1.322c-0.162-0.412-0.304-0.644-0.426-0.697-0.122-0.053-0.262-0.088-0.419-0.105v0c-0.26-0.02-0.612 0.057-1.055 0.231-0.449 0.177-0.804 0.32-1.063 0.429-0.257 0.115-0.464 0.211-0.621 0.287-0.157 0.076-0.314 0.163-0.471 0.261-0.15 0.095-0.251 0.167-0.303 0.217v0c-0.289 0.236-0.512 0.41-0.67 0.522v0l-1.6 0.629-2.216-2.942c0.88-1.225 2.53-2.313 4.951-3.265v0c1.503-0.591 2.732-0.955 3.686-1.093 0.954-0.138 1.766 0.004 2.436 0.425 0.661 0.417 1.194 0.957 1.598 1.619 0.396 0.658 0.728 1.331 0.999 2.017 0.27 0.686 0.476 1.192 0.618 1.518 0.134 0.322 0.217 0.534 0.25 0.637 0.027 0.105 0.088 0.343 0.185 0.716 0.099 0.379 0.156 0.699 0.171 0.959 0.007 0.256 0.022 0.651 0.044 1.182 0.024 0.538 0.002 1.058-0.067 1.561-0.063 0.5-0.144 1.137-0.243 1.91-0.102 0.767-0.251 1.579-0.448 2.434v0c-0.541 2.654-1.056 4.834-1.545 6.539v0l6.868-2.7 0.73 0.318 1.479 3.762-12.951 5.091-1.593-4.051c1.457-6.04 2.328-10.027 2.612-11.961 0.282-1.94 0.132-3.65-0.449-5.128z" fill="black"></path><path d="M206.628 231.673v0c0.5-0.688 1.241-1.417 2.224-2.184v0c1.643-1.284 3.103-1.979 4.381-2.085 1.284-0.11 2.705 0.43 4.264 1.619 1.554 1.193 3.476 3.256 5.768 6.187v0c3.162 4.046 4.909 7.185 5.242 9.417 0.337 2.238-0.672 4.278-3.028 6.119-2.35 1.837-4.576 2.326-6.677 1.467-2.097-0.854-4.602-3.145-7.517-6.875-2.914-3.729-4.711-6.561-5.391-8.497-0.68-1.936-0.435-3.659 0.734-5.168zM211.695 237.323c0.37 0.647 0.773 1.267 1.212 1.86 0.433 0.597 1.213 1.617 2.339 3.059 1.123 1.437 2.102 2.602 2.938 3.498 0.836 0.895 1.444 1.445 1.825 1.649 0.385 0.21 0.696 0.221 0.934 0.036v0c0.613-0.479 1.068-0.86 1.365-1.143 0.302-0.278 0.537-0.624 0.708-1.038 0.165-0.41 0.221-0.773 0.169-1.09-0.052-0.317-0.25-0.788-0.593-1.412v0c-0.475-0.88-1.476-2.296-3.003-4.251-1.531-1.959-2.713-3.384-3.545-4.274-0.836-0.895-1.454-1.446-1.853-1.652-0.4-0.207-0.729-0.209-0.988-0.007v0c-0.586 0.458-1.037 0.84-1.351 1.145-0.314 0.305-0.54 0.664-0.676 1.078-0.132 0.418-0.173 0.786-0.121 1.102 0.057 0.313 0.271 0.792 0.64 1.44z" fill="black"></path><path d="M236.72 209.572v0l-1.128-0.842c-0.36-0.257-0.606-0.374-0.737-0.353-0.131 0.022-0.267 0.069-0.409 0.141v0c-0.229 0.125-0.482 0.381-0.758 0.768-0.28 0.393-0.499 0.706-0.657 0.939-0.153 0.237-0.274 0.43-0.365 0.58-0.09 0.15-0.174 0.308-0.252 0.475-0.074 0.161-0.119 0.277-0.136 0.348v0c-0.113 0.355-0.206 0.623-0.277 0.803v0l-0.998 1.4-3.462-1.259c0.07-1.506 0.86-3.318 2.37-5.436v0c0.938-1.315 1.769-2.291 2.494-2.926 0.725-0.636 1.483-0.96 2.274-0.972 0.782-0.011 1.522 0.151 2.223 0.485 0.691 0.336 1.336 0.718 1.936 1.147 0.6 0.428 1.049 0.74 1.346 0.935 0.288 0.197 0.473 0.329 0.557 0.397 0.08 0.073 0.261 0.24 0.545 0.5 0.289 0.264 0.512 0.501 0.667 0.71 0.146 0.211 0.373 0.533 0.681 0.967 0.314 0.438 0.579 0.886 0.795 1.345 0.22 0.453 0.5 1.031 0.838 1.734 0.333 0.699 0.651 1.46 0.952 2.284v0c0.994 2.52 1.751 4.628 2.27 6.325v0l4.285-6.009 0.786-0.132 3.291 2.347-8.08 11.33-3.545-2.528c-2.072-5.858-3.516-9.674-4.333-11.45-0.822-1.78-1.88-3.131-3.173-4.054z" fill="black"></path><path d="M257.74 175.629l3.594 1.236-0.664 1.931 10.231 3.519-1.463 4.25-0.715 0.35-9.698-3.337-2.548 7.407-0.716 0.349-14.214-4.921 1.246-3.623 0.715-0.349 10.281 2.941 1.109-3.223-10.617-3.695 1.269-3.689 0.716-0.35 10.277 2.951 0.481-1.398z" fill="black"></path></g></svg></g></svg></g></svg></g><g></g></svg></g><defs><mask></mask></defs><mask><g id="SvgjsG6962"><svg viewBox="0 0 279.72 279.72" height="279.72" width="279.72"><g><svg viewBox="0 0 279.72 279.72" height="279.72" width="279.72"><g><svg viewBox="0 0 279.72 279.72" height="279.72" width="279.72"><g id="SvgjsG6961"><svg viewBox="0 0 279.72 279.72" height="279.72" width="279.72" id="SvgjsSvg6960"><g><svg viewBox="0 0 279.72 279.72" height="279.72" width="279.72"><g transform="matrix(1,0,0,1,73.92936372216631,95.17203142083359)"><svg viewBox="0 0 131.8612725556674 89.37593715833285" height="89.37593715833285" width="131.8612725556674"><g id="SvgjsG6959"><svg xmlns="http://www.w3.org/2000/svg" xmlns:xlink="http://www.w3.org/1999/xlink" version="1.1" x="0" y="0" viewBox="6.768000000000001 20.451 72.437 49.09799999999999" style="enable-background:new 0 0 90 90;" xml:space="preserve" height="89.37593715833285" width="131.8612725556674" class="icon-xg-0" data-fill-palette-color="accent" id="SvgjsSvg6958"><g fill="black"><path d="M76.559 20.451H31.47c-1.462 0-2.646 1.185-2.646 2.646v32.135h50.381V23.097C79.205 21.636 78.02 20.451 76.559 20.451zM76.329 53.026H31.702V23.518h44.627V53.026z" fill="black"></path><path d="M75.699 30.108c0 0-9.329 2.357-23.568 9.145C39.703 45.181 32.3 50.995 32.3 50.995v1.557h43.399V30.108z" fill="black"></path><path d="M78.88 55.696H28.392c-0.03 0-0.056 0.007-0.081 0.017L7.363 64.806c-0.419 0.182-0.595 0.357-0.595 0.826 0 0.034 0 3.491 0 3.491 0 0.276 0.298 0.426 0.695 0.426 1.046 0 43.411 0 45.158 0 1.751 0 4.364-0.484 5.838-1.138 1.331-0.591 17.089-7.455 20.132-8.782 0.328-0.142 0.507-0.516 0.503-0.919 0-0.84-0.005-2.812-0.012-2.848C79.063 55.765 78.979 55.696 78.88 55.696zM58.379 64.577c-1.394 0.619-3.976 1.121-5.758 1.121H7.607c-0.275 0-0.417-0.079-0.434-0.15C7.158 65.47 7.259 65.3 7.53 65.185l20.904-9.075h49.449C74.077 57.76 59.647 64.014 58.379 64.577z" fill="black"></path><polygon points="28.092,58.223 31.095,58.223 33.504,57.203 33.504,56.748 31.072,57.811 28.092,57.811  " fill="black"></polygon><polygon points="28.839,59.235 28.839,58.779 26.407,59.839 23.427,59.839 23.427,60.254 26.43,60.254  " fill="black"></polygon><polygon points="18.826,61.873 18.826,62.286 21.827,62.286 24.238,61.266 24.238,60.81 21.804,61.873  " fill="black"></polygon><polygon points="39.684,57.203 39.684,56.748 37.253,57.811 34.274,57.811 34.274,58.223 37.278,58.223  " fill="black"></polygon><polygon points="35.019,59.235 35.019,58.779 32.585,59.839 29.609,59.839 29.609,60.254 32.611,60.254  " fill="black"></polygon><polygon points="25.006,61.873 25.006,62.286 28.01,62.286 30.419,61.266 30.419,60.81 27.985,61.873  " fill="black"></polygon><polygon points="45.865,57.203 45.865,56.748 43.433,57.811 40.454,57.811 40.454,58.223 43.458,58.223  " fill="black"></polygon><polygon points="41.2,59.235 41.2,58.779 38.768,59.839 35.789,59.839 35.789,60.254 38.791,60.254  " fill="black"></polygon><polygon points="31.189,61.873 31.189,62.286 34.191,62.286 36.6,61.266 36.6,60.81 34.168,61.873  " fill="black"></polygon><polygon points="52.047,57.203 52.047,56.748 49.613,57.811 46.635,57.811 46.635,58.223 49.64,58.223  " fill="black"></polygon><polygon points="47.382,59.235 47.382,58.779 44.948,59.839 41.97,59.839 41.97,60.254 44.974,60.254  " fill="black"></polygon><polygon points="37.371,61.873 37.371,62.286 40.374,62.286 42.78,61.266 42.78,60.81 40.351,61.873  " fill="black"></polygon><polygon points="58.228,57.203 58.228,56.748 55.793,57.811 52.816,57.811 52.816,58.223 55.819,58.223  " fill="black"></polygon><polygon points="53.563,59.235 53.563,58.779 51.131,59.839 48.152,59.839 48.152,60.254 51.155,60.254  " fill="black"></polygon><polygon points="43.553,61.873 43.553,62.286 46.555,62.286 48.96,61.266 48.96,60.81 46.529,61.873  " fill="black"></polygon><polygon points="64.408,57.203 64.408,56.748 61.977,57.811 58.999,57.811 58.999,58.223 62,58.223  " fill="black"></polygon><polygon points="59.743,59.235 59.743,58.779 57.311,59.839 54.334,59.839 54.334,60.254 57.335,60.254  " fill="black"></polygon><polygon points="49.731,61.873 49.731,62.286 52.734,62.286 55.143,61.266 55.143,60.81 52.711,61.873  " fill="black"></polygon><polygon points="70.589,57.203 70.589,56.748 68.157,57.811 65.177,57.811 65.177,58.223 68.183,58.223  " fill="black"></polygon><polygon points="60.515,59.839 60.515,60.254 63.518,60.254 65.923,59.235 65.923,58.779 63.492,59.839  " fill="black"></polygon><polygon points="55.914,61.873 55.914,62.286 58.915,62.286 61.323,61.266 61.323,60.81 58.889,61.873  " fill="black"></polygon></g></svg></g></svg></g><g id="SvgjsG6957"><path d="M31.169 99.413v0l-15.416-5.259 3.358 3.611-1.169 3.426-4.752 0.694 15.321 5.227c0.406 0.139 0.671 0.243 0.796 0.314v0c0.287 0.197 0.295 0.692 0.025 1.485v0c-0.77 2.259-1.574 3.245-2.412 2.96v0l-24.077-8.214c-0.856-0.292-1.019-1.219-0.486-2.779 0.532-1.561 1.271-2.357 2.217-2.388v0l9.924-0.44-7.566-6.597c-0.432-0.353-0.683-0.686-0.753-1-0.07-0.314 0.007-0.798 0.229-1.452v0c0.556-1.631 1.28-2.308 2.17-2.032v0l10.302 2.908 13.684 4.668c0.679 0.232 1.076 0.438 1.192 0.619 0.117 0.175 0.058 0.608-0.178 1.3-0.236 0.692-0.45 1.245-0.641 1.661-0.189 0.41-0.443 0.759-0.761 1.047-0.309 0.284-0.645 0.364-1.007 0.241z" fill="black"></path><path d="M51.211 66.261v0l-16.413-14.53-2.972 3.358c-0.397 0.418-0.759 0.595-1.086 0.529v0c-0.393-0.062-0.913-0.379-1.561-0.952v0c-1.019-0.902-1.26-1.657-0.722-2.264v0l8.658-9.78c0.92-1.039 1.658-1.312 2.215-0.819v0c1.591 1.409 2.007 2.542 1.247 3.401v0l-2.689 2.991 5.664 4.585 10.959 9.647c0.341 0.302 0.556 0.51 0.643 0.623v0c0.189 0.292 0.005 0.752-0.55 1.38v0c-1.6 1.807-2.731 2.417-3.393 1.831z" fill="black"></path><path d="M114.111 26.059c-0.6-0.531-0.926-0.955-0.98-1.272-0.055-0.324 0.149-0.807 0.612-1.45 0.461-0.649 0.777-1.012 0.948-1.088 0.17-0.083 0.337-0.139 0.502-0.167 0.159-0.027 0.448 0.036 0.868 0.19v0c1.976 1.073 3.622 1.499 4.937 1.277 1.322-0.223 2.133-0.677 2.432-1.36 0.299-0.683 0.365-1.52 0.198-2.511-0.168-0.991-0.66-1.731-1.476-2.218-0.811-0.495-2.097-1.043-3.857-1.643-1.76-0.6-3.36-1.496-4.799-2.687-1.438-1.185-2.282-2.521-2.533-4.008v0c-0.447-2.644-0.085-4.687 1.085-6.128 1.176-1.45 3.096-2.4 5.759-2.85v0c1.633-0.276 3.291-0.155 4.977 0.362v0c0.882 0.191 1.33 0.465 1.342 0.824v0c-0.003 0.143 0.01 0.359 0.038 0.646v0c-0.234 1.352-0.454 2.143-0.659 2.375v0c-0.065 0.059-0.22 0.108-0.464 0.15-0.251 0.042-0.938-0.042-2.062-0.253-1.13-0.21-2.065-0.253-2.805-0.128-0.74 0.125-1.315 0.487-1.724 1.087-0.407 0.606-0.531 1.381-0.371 2.327 0.159 0.939 0.726 1.72 1.701 2.343 0.982 0.623 2.426 1.198 4.33 1.726v0c2.027 0.65 3.594 1.415 4.702 2.295 1.107 0.88 1.808 2.193 2.103 3.938v0c0.981 5.803-0.981 9.119-5.885 9.948v0c-3.655 0.618-6.628 0.043-8.919-1.725z" fill="black"></path><path d="M161.298 24.634l2.353-11.783-2.82-0.563c-0.276-0.055-0.421-0.152-0.434-0.292-0.008-0.131 0.005-0.279 0.037-0.444v0c0.202-1.012 0.485-1.52 0.848-1.522v0l2.932 0.001 2.766-3.58c0.346-0.293 0.919-0.36 1.721-0.2v0c0.21 0.042 0.324 0.502 0.34 1.38 0.021 0.886 0.007 2.004-0.045 3.355v0l3.383 0.675c0.375 0.075 0.468 0.582 0.28 1.522-0.188 0.94-0.469 1.373-0.843 1.298v0l-3.422-0.683-2.233 11.182-0.223 4.097-0.006 0.03c-0.008 0.142-0.027 0.237-0.057 0.286v0c-0.155 0.16-0.762 0.135-1.82-0.077v0c-1.052-0.21-1.641-0.546-1.768-1.009v0z" fill="black"></path><path d="M199.719 31.463v0c1.329-2.243 2.532-3.825 3.608-4.746 1.072-0.915 2.156-1.337 3.25-1.265 1.091 0.078 2.462 0.606 4.112 1.583 1.644 0.974 2.762 1.921 3.354 2.841 0.595 0.929 0.745 2.082 0.451 3.459-0.291 1.386-1.102 3.2-2.431 5.443v0c-1.828 3.085-3.537 4.963-5.127 5.634-1.595 0.667-3.564 0.307-5.905-1.08-2.347-1.391-3.611-2.946-3.792-4.666-0.175-1.717 0.652-4.118 2.48-7.203zM203.915 33.949v0c-2.047 3.454-2.742 5.376-2.085 5.766v0c0.905 0.537 1.66 0.789 2.263 0.757v0c0.326-0.025 0.658-0.229 0.995-0.614v0c0.674-0.769 1.517-2.007 2.529-3.715v0c2.023-3.414 2.706-5.316 2.049-5.705v0c-1.234-0.731-2.163-0.9-2.787-0.506-0.623 0.394-1.612 1.733-2.964 4.017z" fill="black"></path><path d="M245.032 57.67l-0.615 1.415c2.277 0.686 3.613 1.274 4.009 1.764 0.4 0.495 0.666 1.017 0.798 1.565 0.137 0.553 0.189 0.997 0.159 1.333v0l-0.048 0.452c-1.422 0.683-2.34 1.071-2.756 1.165-0.419 0.089-0.73 0.008-0.932-0.242-0.202-0.25-0.359-0.653-0.472-1.209-0.107-0.56-0.289-0.998-0.546-1.316-0.253-0.313-1.052-0.71-2.397-1.192v0l-10.272 8.294c-0.11 0.088-0.2 0.131-0.271 0.128v0c-0.209 0.04-0.56-0.246-1.053-0.856-0.497-0.615-0.913-1.227-1.249-1.834-0.331-0.603-0.442-0.948-0.333-1.037v0l13.847-11.181c0.297-0.24 0.783 0.057 1.457 0.892 0.678 0.84 0.921 1.445 0.729 1.815v0z" fill="black"></path><path d="M251.005 106.108v0c-0.831-2.422-0.751-4.328 0.239-5.717 0.991-1.389 3.182-2.665 6.575-3.828v0c2.441-0.837 4.376-1.26 5.804-1.269 1.422-0.006 2.517 0.345 3.285 1.053 0.761 0.71 1.433 1.914 2.015 3.613 0.581 1.693 0.783 3.058 0.609 4.097-0.178 1.032-0.84 1.971-1.989 2.819-1.152 0.856-2.914 1.691-5.285 2.504v0c-0.139 0.048-0.276 0.095-0.409 0.14-0.139 0.048-0.358-0.175-0.654-0.668-0.291-0.496-0.564-1.118-0.821-1.866v0l-1.791-5.221c-2.635 0.954-4.076 1.66-4.322 2.12v0c-0.106 0.27-0.081 0.63 0.073 1.081v0c1.016 2.961 1.857 4.937 2.522 5.927v0c0.041 0.036 0.064 0.063 0.071 0.082v0c0.099 0.143 0.051 0.305-0.142 0.485-0.193 0.18-0.709 0.413-1.546 0.7-0.837 0.287-1.362 0.265-1.574-0.066v0c-0.679-0.802-1.566-2.797-2.66-5.986zM263.937 99.928v0l-2.644 0.907 1.175 3.424c2.595-0.989 3.818-1.7 3.67-2.131v0c-0.263-0.767-0.595-1.362-0.995-1.785-0.392-0.418-0.793-0.557-1.206-0.415z" fill="black"></path><path d="M3.482 143.5c0-5.812 4.712-10.524 10.525-10.525 5.812 0 10.524 4.712 10.524 10.525 0 5.812-4.712 10.524-10.524 10.524-5.812 0-10.524-4.712-10.525-10.524z" fill="black"></path><path d="M256.62 143.5c0-5.812 4.712-10.524 10.525-10.525 5.812 0 10.524 4.712 10.524 10.525 0 5.812-4.712 10.524-10.524 10.524-5.812 0-10.524-4.712-10.525-10.524z" fill="black"></path></g><g id="SvgjsG6956"><path d="M12.312 180.135c0.422-0.663 0.782-1.045 1.081-1.145 0.299-0.1 0.796 0.025 1.491 0.373 0.704 0.352 1.105 0.603 1.205 0.754 0.1 0.151 0.176 0.305 0.229 0.464 0.051 0.153 0.034 0.441-0.051 0.865v0c-0.742 2.077-0.907 3.736-0.494 4.976 0.415 1.247 0.975 1.961 1.678 2.143 0.706 0.189 1.526 0.128 2.461-0.183 0.935-0.311 1.581-0.897 1.937-1.758 0.35-0.858 0.685-2.185 1.006-3.981 0.312-1.8 0.935-3.484 1.868-5.052 0.933-1.568 2.102-2.587 3.508-3.055v0c2.487-0.828 4.519-0.784 6.095 0.132 1.579 0.923 2.787 2.64 3.623 5.153v0c0.51 1.533 0.644 3.152 0.4 4.858v0c-0.051 0.886-0.253 1.363-0.605 1.431v0c-0.142 0.019-0.35 0.064-0.623 0.133v0c-1.338-0.028-2.132-0.124-2.385-0.287v0c-0.066-0.049-0.138-0.191-0.216-0.426-0.076-0.229-0.1-0.906-0.072-2.032 0.036-1.121-0.062-2.032-0.295-2.731-0.233-0.7-0.673-1.203-1.32-1.511-0.644-0.301-1.409-0.305-2.292-0.01-0.89 0.297-1.565 0.966-2.023 2.009-0.452 1.041-0.791 2.524-1.019 4.451v0c-0.325 2.058-0.831 3.689-1.518 4.894-0.687 1.204-1.851 2.079-3.492 2.625v0c-5.47 1.822-8.974 0.42-10.514-4.203v0c-1.148-3.447-1.036-6.409 0.337-8.887z" fill="black"></path><path d="M29.766 215.149v0l0.704 1.053 14.93-9.98-0.587-0.878c-0.244-0.401-0.294-0.747-0.149-1.037v0c0.18-0.322 0.629-0.723 1.348-1.204v0c1.092-0.73 1.855-0.772 2.287-0.125v0l3.453 5.166c0.574 0.858 0.56 1.489-0.042 1.891v0c-1.733 1.159-2.827 1.398-3.282 0.718v0l-0.491-0.736-5.648 4.199-9.064 6.107 0.587 0.878c0.432 0.695 0.347 1.243-0.255 1.646v0c-1.759 1.12-2.944 1.222-3.555 0.308v0l-3.694-5.525c-0.218-0.362-0.255-0.689-0.11-0.979v0c0.18-0.322 0.641-0.731 1.382-1.226v0c1.092-0.73 1.821-0.822 2.186-0.276z" fill="black"></path><path d="M47.355 241.799v0l16.297-18.755c0.567-0.653 1.488-0.425 2.763 0.683v0c0.263 0.229 0.464 0.416 0.603 0.563 0.134 0.152 0.249 0.403 0.345 0.753 0.105 0.349 0.123 0.742 0.054 1.179v0l-4.938 15.264 9.496-11.25c0.554-0.638 1.469-0.402 2.744 0.706v0c0.531 0.462 0.84 0.837 0.927 1.125 0.087 0.298-0.031 0.648-0.354 1.051v0l-6.513 8.354-9.451 10.877c-0.259 0.299-0.445 0.492-0.558 0.581v0c-0.286 0.186-0.738 0.011-1.356-0.526v0c-1.149-0.998-1.553-1.922-1.213-2.773v0l4.34-15.557-9.513 11.009c-0.277 0.319-0.472 0.522-0.584 0.612v0c-0.286 0.186-0.738 0.011-1.356-0.525v0c-1.771-1.539-2.349-2.663-1.733-3.371z" fill="black"></path><path d="M94.339 267.599v0c0.533 0.236 0.649 0.695 0.347 1.374-0.304 0.686-0.542 1.197-0.712 1.533v0c-0.428 0.734-0.965 1.02-1.612 0.858v0c-2.031-0.563-3.509-1.049-4.434-1.46v0c-3.187-1.412-4.981-3.286-5.384-5.62-0.405-2.328 0.432-5.839 2.513-10.533v0c1.518-3.426 2.942-5.926 4.27-7.5 1.328-1.574 2.736-2.468 4.224-2.681 1.494-0.21 3.402 0.199 5.725 1.228 2.323 1.029 3.859 2.147 4.607 3.351v0c0.149 0.242 0.176 0.47 0.082 0.685-0.095 0.214-0.377 0.57-0.847 1.066-0.463 0.499-0.842 0.833-1.137 1.003-0.286 0.166-0.528 0.206-0.724 0.119-0.19-0.084-0.335-0.163-0.434-0.237v0c-1.464-1.03-2.779-1.804-3.943-2.319-1.171-0.519-2.214-0.215-3.131 0.911-0.926 1.129-2.027 3.134-3.304 6.014-1.277 2.88-2.094 4.923-2.452 6.128-0.349 1.202-0.421 2.116-0.215 2.743 0.21 0.635 0.759 1.15 1.647 1.544 0.889 0.394 1.918 0.784 3.089 1.171 1.174 0.396 1.782 0.603 1.825 0.622z" fill="black"></path><path d="M124.128 262.8l6.718 0.888c0.93 0.123 1.34 0.603 1.23 1.441v0c-0.15 1.136-0.323 1.905-0.518 2.305-0.195 0.4-0.581 0.562-1.16 0.485v0l-6.828-0.903-0.981 7.417 8.045 1.064c0.555 0.1 0.922 0.261 1.103 0.48 0.186 0.227 0.254 0.537 0.201 0.929v0c-0.151 1.143-0.361 1.913-0.63 2.311-0.263 0.405-0.71 0.565-1.341 0.482v0l-12.261-1.622-0.485-0.632 3.391-25.638 12.37 1.636c0.994 0.152 1.443 0.59 1.348 1.314v0c-0.103 0.622-0.201 1.109-0.295 1.462-0.094 0.353-0.287 0.689-0.58 1.009-0.292 0.313-0.67 0.439-1.135 0.377v0l-7.765-1.027z" fill="black"></path><path d="M185.565 251.441v0l-0.487-1.322c-0.162-0.412-0.304-0.644-0.426-0.697-0.122-0.053-0.262-0.088-0.419-0.105v0c-0.26-0.02-0.612 0.057-1.055 0.231-0.449 0.177-0.804 0.32-1.063 0.429-0.257 0.115-0.464 0.211-0.621 0.287-0.157 0.076-0.314 0.163-0.471 0.261-0.15 0.095-0.251 0.167-0.303 0.217v0c-0.289 0.236-0.512 0.41-0.67 0.522v0l-1.6 0.629-2.216-2.942c0.88-1.225 2.53-2.313 4.951-3.265v0c1.503-0.591 2.732-0.955 3.686-1.093 0.954-0.138 1.766 0.004 2.436 0.425 0.661 0.417 1.194 0.957 1.598 1.619 0.396 0.658 0.728 1.331 0.999 2.017 0.27 0.686 0.476 1.192 0.618 1.518 0.134 0.322 0.217 0.534 0.25 0.637 0.027 0.105 0.088 0.343 0.185 0.716 0.099 0.379 0.156 0.699 0.171 0.959 0.007 0.256 0.022 0.651 0.044 1.182 0.024 0.538 0.002 1.058-0.067 1.561-0.063 0.5-0.144 1.137-0.243 1.91-0.102 0.767-0.251 1.579-0.448 2.434v0c-0.541 2.654-1.056 4.834-1.545 6.539v0l6.868-2.7 0.73 0.318 1.479 3.762-12.951 5.091-1.593-4.051c1.457-6.04 2.328-10.027 2.612-11.961 0.282-1.94 0.132-3.65-0.449-5.128z" fill="black"></path><path d="M206.628 231.673v0c0.5-0.688 1.241-1.417 2.224-2.184v0c1.643-1.284 3.103-1.979 4.381-2.085 1.284-0.11 2.705 0.43 4.264 1.619 1.554 1.193 3.476 3.256 5.768 6.187v0c3.162 4.046 4.909 7.185 5.242 9.417 0.337 2.238-0.672 4.278-3.028 6.119-2.35 1.837-4.576 2.326-6.677 1.467-2.097-0.854-4.602-3.145-7.517-6.875-2.914-3.729-4.711-6.561-5.391-8.497-0.68-1.936-0.435-3.659 0.734-5.168zM211.695 237.323c0.37 0.647 0.773 1.267 1.212 1.86 0.433 0.597 1.213 1.617 2.339 3.059 1.123 1.437 2.102 2.602 2.938 3.498 0.836 0.895 1.444 1.445 1.825 1.649 0.385 0.21 0.696 0.221 0.934 0.036v0c0.613-0.479 1.068-0.86 1.365-1.143 0.302-0.278 0.537-0.624 0.708-1.038 0.165-0.41 0.221-0.773 0.169-1.09-0.052-0.317-0.25-0.788-0.593-1.412v0c-0.475-0.88-1.476-2.296-3.003-4.251-1.531-1.959-2.713-3.384-3.545-4.274-0.836-0.895-1.454-1.446-1.853-1.652-0.4-0.207-0.729-0.209-0.988-0.007v0c-0.586 0.458-1.037 0.84-1.351 1.145-0.314 0.305-0.54 0.664-0.676 1.078-0.132 0.418-0.173 0.786-0.121 1.102 0.057 0.313 0.271 0.792 0.64 1.44z" fill="black"></path><path d="M236.72 209.572v0l-1.128-0.842c-0.36-0.257-0.606-0.374-0.737-0.353-0.131 0.022-0.267 0.069-0.409 0.141v0c-0.229 0.125-0.482 0.381-0.758 0.768-0.28 0.393-0.499 0.706-0.657 0.939-0.153 0.237-0.274 0.43-0.365 0.58-0.09 0.15-0.174 0.308-0.252 0.475-0.074 0.161-0.119 0.277-0.136 0.348v0c-0.113 0.355-0.206 0.623-0.277 0.803v0l-0.998 1.4-3.462-1.259c0.07-1.506 0.86-3.318 2.37-5.436v0c0.938-1.315 1.769-2.291 2.494-2.926 0.725-0.636 1.483-0.96 2.274-0.972 0.782-0.011 1.522 0.151 2.223 0.485 0.691 0.336 1.336 0.718 1.936 1.147 0.6 0.428 1.049 0.74 1.346 0.935 0.288 0.197 0.473 0.329 0.557 0.397 0.08 0.073 0.261 0.24 0.545 0.5 0.289 0.264 0.512 0.501 0.667 0.71 0.146 0.211 0.373 0.533 0.681 0.967 0.314 0.438 0.579 0.886 0.795 1.345 0.22 0.453 0.5 1.031 0.838 1.734 0.333 0.699 0.651 1.46 0.952 2.284v0c0.994 2.52 1.751 4.628 2.27 6.325v0l4.285-6.009 0.786-0.132 3.291 2.347-8.08 11.33-3.545-2.528c-2.072-5.858-3.516-9.674-4.333-11.45-0.822-1.78-1.88-3.131-3.173-4.054z" fill="black"></path><path d="M257.74 175.629l3.594 1.236-0.664 1.931 10.231 3.519-1.463 4.25-0.715 0.35-9.698-3.337-2.548 7.407-0.716 0.349-14.214-4.921 1.246-3.623 0.715-0.349 10.281 2.941 1.109-3.223-10.617-3.695 1.269-3.689 0.716-0.35 10.277 2.951 0.481-1.398z" fill="black"></path></g></svg></g></svg></g></svg></g><g></g></svg></g><defs><mask></mask></defs></svg><rect width="279.72" height="279.72" fill="black" stroke="none" visibility="hidden"></rect></g></mask></svg><rect width="279.72" height="279.72" fill="black" stroke="none" visibility="hidden"></rect></g></mask></svg><rect width="279.72" height="279.72" fill="black" stroke="none" visibility="hidden"></rect></g></mask><linearGradient x1="0.054" x2="0.941" y1="0.5" y2="0.5" id="c50ac653-573b-4af8-b3de-c934f099b60d"><stop stop-color="#9c7945" offset="0"></stop><stop stop-color="#faf3aa" offset="0.498"></stop><stop stop-color="#9c7945" offset="1"></stop></linearGradient><rect width="279.72" height="279.72" fill="url(#c50ac653-573b-4af8-b3de-c934f099b60d)" mask="url(#dc67f8a8-f3ec-41e5-8029-87bc42a5fcdd)" data-fill-palette-color="accent"></rect></svg><rect width="279.72" height="279.72" fill="none" stroke="none" visibility="hidden"></rect></g></svg></g></svg>